<svg width="40" height="40" viewBox="0 0 40 40" fill="none" xmlns="http://www.w3.org/2000/svg">
<path d="M20 40C31.0457 40 40 31.0457 40 20C40 8.9543 31.0457 0 20 0C8.9543 0 0 8.9543 0 20C0 31.0457 8.9543 40 20 40ZM20 3.912C28.8852 3.912 36.088 11.1148 36.088 20C36.088 28.8852 28.8852 36.088 20 36.088C11.1148 36.088 3.912 28.8852 3.912 20C3.912 11.1148 11.1148 3.912 20 3.912Z" fill="#03045E"/>
<path d="M14.5454 10.9092L26.9519 18.505C28.245 19.2967 28.2213 21.1831 26.9088 21.9421L14.5454 29.091" stroke="#03045E" stroke-width="3"/>
</svg>
