<svg width="40" height="40" viewBox="0 0 40 40" fill="none" xmlns="http://www.w3.org/2000/svg">
<path d="M20 40C8.95431 40 0 31.0457 0 20C0 8.9543 8.95431 0 20 0C31.0457 0 40 8.9543 40 20C40 31.0457 31.0457 40 20 40ZM20 3.912C11.1148 3.912 3.912 11.1148 3.912 20C3.912 28.8852 11.1148 36.088 20 36.088C28.8852 36.088 36.088 28.8852 36.088 20C36.088 11.1148 28.8852 3.912 20 3.912Z" fill="#03045E"/>
<path d="M25.4546 10.9092L13.0481 18.505C11.755 19.2967 11.7787 21.1831 13.0912 21.9421L25.4546 29.091" stroke="#03045E" stroke-width="3"/>
</svg>
