<svg width="129" height="113" viewBox="0 0 129 113" fill="none" xmlns="http://www.w3.org/2000/svg">
<path d="M2.2002 112.4L22.2002 31.2L27.4002 54.4001C19.6669 54.4001 13.1335 52 7.8002 47.2C2.73353 42.4 0.200195 36 0.200195 28.0001C0.200195 19.7334 2.73353 13.2 7.8002 8.40005C13.1335 3.33338 19.5335 0.800049 27.0002 0.800049C34.7335 0.800049 41.0002 3.46671 45.8002 8.80004C50.6002 13.8667 53.0002 20.2667 53.0002 28.0001C53.0002 30.4001 52.8669 32.9334 52.6002 35.6001C52.3335 38.0001 51.6669 40.8001 50.6002 44C49.8002 47.2 48.4669 51.3334 46.6002 56.4L27.4002 112.4H2.2002ZM77.8002 112.4L97.8002 31.2L103 54.4001C95.2669 54.4001 88.7335 52 83.4002 47.2C78.3335 42.4 75.8002 36 75.8002 28.0001C75.8002 19.7334 78.3335 13.2 83.4002 8.40005C88.7335 3.33338 95.1335 0.800049 102.6 0.800049C110.334 0.800049 116.6 3.46671 121.4 8.80004C126.2 13.8667 128.6 20.2667 128.6 28.0001C128.6 30.4001 128.467 32.9334 128.2 35.6001C127.934 38.0001 127.267 40.8001 126.2 44C125.4 47.2 124.067 51.3334 122.2 56.4L103 112.4H77.8002Z" fill="#90E0EF"/>
</svg>
