<svg width="175" height="86" viewBox="0 0 175 86" fill="none" xmlns="http://www.w3.org/2000/svg">
<path d="M151.736 51.8089C155.582 49.63 166.434 50.7066 166.788 52.1218C166.788 52.8612 165.679 52.4915 164.94 53.6005C163.473 55.8013 169.129 55.8184 171.963 55.4488C174.181 55.0791 174.551 52.9844 174.551 51.3825C174.181 50.2735 173.886 49.5341 168.267 46.5768C162.648 43.6195 152.618 46.0839 148.305 47.6858C147.073 48.4251 144.609 50.4952 144.609 52.861C144.609 55.8183 147.196 58.0362 151.263 60.2542C152.828 61.1078 153.828 62.0527 154.445 62.8995C155.371 64.1721 154.692 65.5997 153.12 65.5227C151.008 65.4193 147.7 64.7904 144.609 63.9508C141.755 63.1758 142.637 60.747 143.5 59.1452C138.471 58.2706 137.039 60.5755 136.933 62.8325C136.864 64.301 137.814 65.581 139.008 66.4385C145.808 71.3213 151.635 71.5549 155.723 70.2963C159.54 69.1211 162.475 64.9926 160.534 61.5018C158.365 57.5995 153.031 54.4996 151.561 52.6038C151.355 52.3381 151.443 51.9746 151.736 51.8089Z" fill="#90E0EF" fill-opacity="0.2"/>
<path d="M7.09572 57.6668C8.82079 58.5293 12.7145 58.3322 14.4889 50.6433C11.162 54.0934 7.69633 54.6128 14.4889 42.8803C18.2405 36.4003 23.3294 31.4936 27.8686 28.0877C34.1421 23.3805 41.946 26.2824 39.6634 33.786C37.4978 40.9049 32.1845 48.8403 28.536 52.8611V36.7576C28.536 35.6773 28.37 34.5537 27.69 33.7142C26.3916 32.1111 24.967 32.5886 23.884 33.5625C22.9054 34.4425 22.6126 35.811 22.61 37.1271C22.5849 49.4675 23.3607 62.2025 23.3607 66.1689C23.3607 69.8655 21.5124 82.4339 26.318 85.7608C28.1663 84.7751 31.9368 82.3598 30.7539 82.0641C29.571 81.7684 29.0288 67.401 28.9056 60.2543C35.6827 62.2258 50.5676 66.3906 55.8907 67.2778C62.5445 68.3867 62.1749 56.188 61.4356 58.7756C60.6962 61.3632 57.739 60.9936 54.0424 60.9936C50.3458 60.9936 33.7112 55.079 34.8201 54.7094C35.7073 54.4137 41.1043 45.7144 43.6919 41.4017C44.5122 40.0024 45.4609 36.899 46.0099 33.25C47.692 22.0686 39.2211 18.4809 28.536 22.1796C20.8471 24.8411 11.5316 37.8285 7.83504 43.9894C3.39914 52.8612 5.49387 56.8043 7.09572 57.6668Z" fill="#90E0EF" fill-opacity="0.2"/>
<path d="M92.5639 23.4121C93.3823 25.1585 96.5593 27.4185 102.719 22.4868C97.9699 23.1303 94.9289 21.3887 107.533 16.3967C114.495 13.6396 121.53 12.946 127.203 13.0889C135.044 13.2864 139.366 20.4023 132.922 24.8735C126.809 29.1154 117.72 32.0458 112.364 32.9376L122.35 20.3044C123.02 19.4569 123.587 18.4725 123.574 17.3922C123.549 15.3294 122.136 14.8206 120.682 14.913C119.369 14.9965 118.29 15.8885 117.472 16.9193C109.8 26.5849 102.511 37.0567 100.052 40.1684C97.7592 43.0684 88.5152 51.7821 90.2221 57.3722C92.2834 57.745 96.7391 58.1884 95.9945 57.2229C95.2499 56.2573 103.734 44.6499 108.069 38.9668C112.163 44.7161 121.258 57.2139 124.884 61.2108C129.416 66.207 136.691 56.4079 134.506 57.9794C132.321 59.5509 130.231 57.427 127.331 55.1347C124.431 52.8424 115.049 37.8869 116.148 38.2846C117.027 38.6027 126.656 35.1249 131.36 33.3462C132.871 32.7572 135.54 30.9109 138.234 28.3886C146.487 20.6599 142.067 12.5923 131.39 8.86782C123.708 6.18775 108.346 10.5997 101.626 13.1406C92.644 17.3498 91.8421 21.7421 92.5639 23.4121Z" fill="#90E0EF" fill-opacity="0.2"/>
<path d="M79.1792 16.2651C76.5177 15.3779 75.8523 16.6347 75.8523 17.374L71.0467 18.4829C67.2022 19.37 62.5445 23.5349 60.6962 25.5064C55.4801 32.4261 55.6674 35.1477 61.4355 39.1838C59.8336 39.6767 56.7038 42.3628 56.9996 49.1646C57.2953 55.9663 65.2553 55.4488 69.1983 54.3398C73.0182 52.3683 81.0275 47.2423 82.506 42.5107C83.9845 37.7791 83.122 35.6104 82.506 35.1175H80.6579C78.8097 37.3355 69.1983 52.1218 64.7624 49.1646C61.2137 46.7988 63.2838 43.7429 64.7624 42.5107L75.1128 35.1175C79.5487 30.0902 75.9754 29.5727 73.6342 29.9423C70.677 32.0371 64.3929 35.7829 62.9143 34.0086C61.4356 32.2342 67.2269 26.8618 70.3074 24.3974C71.6628 25.1368 76.5916 28.094 80.6579 21.8098C81.274 20.3312 81.8408 17.1522 79.1792 16.2651Z" fill="#90E0EF" fill-opacity="0.2"/>
<path d="M77.7007 5.1752L71.7862 8.50212C73.6346 12.5684 62.9143 61.733 63.6537 63.5812C64.393 65.4295 69.5683 63.5812 68.0896 63.5812C66.9067 63.5812 72.772 32.5299 75.8524 17.0043L77.7007 5.1752Z" fill="#90E0EF" fill-opacity="0.2"/>
<path d="M166.788 21.8095C167.608 23.0401 166.048 26.8997 161.612 30.3118C156.807 34.0083 154.589 35.4873 151.262 34.0083C150.153 29.9424 153.111 28.0939 156.807 24.7669C160.493 21.4488 164.57 18.4828 166.788 21.8095Z" fill="#90E0EF" fill-opacity="0.2"/>
<path d="M148.779 48.8518C152.626 46.6728 163.478 47.7494 163.832 49.1647C163.832 49.904 162.723 49.5343 161.983 50.6433C160.516 52.8441 166.173 52.8612 169.007 52.4916C171.225 52.1219 171.594 50.0272 171.594 48.4253C171.225 47.3164 170.929 46.5769 165.31 43.6196C159.691 40.6624 149.661 43.1267 145.349 44.7286C144.117 45.4679 141.652 47.538 141.652 49.9038C141.652 52.8611 144.24 55.079 148.306 57.297C149.871 58.1506 150.871 59.0955 151.488 59.9423C152.415 61.2149 151.736 62.6425 150.164 62.5655C148.052 62.4621 144.744 61.8332 141.652 60.9936C138.798 60.2186 139.681 57.7899 140.543 56.188C135.514 55.3134 134.082 57.6183 133.976 59.8753C133.907 61.3439 134.857 62.6238 136.052 63.4813C142.852 68.3641 148.678 68.5977 152.766 67.3391C156.583 66.1639 159.518 62.0354 157.578 58.5447C155.408 54.6423 150.074 51.5424 148.604 49.6466C148.398 49.3809 148.487 49.0174 148.779 48.8518Z" fill="#90E0EF" fill-opacity="0.6"/>
<path d="M4.13918 54.7096C5.86425 55.5722 9.75798 55.375 11.5323 47.6861C8.20543 51.1362 4.73978 51.6556 11.5323 39.9231C15.284 33.4431 20.3729 28.5365 24.9121 25.1305C31.1855 20.4233 38.9894 23.3252 36.7069 30.8288C34.5413 37.9477 29.2279 45.8831 25.5794 49.9039V33.8005C25.5794 32.7202 25.4134 31.5966 24.7335 30.7571C23.4351 29.154 22.0105 29.6314 20.9274 30.6054C19.9488 31.4854 19.6561 32.8538 19.6534 34.1699C19.6284 46.5103 20.4042 59.2454 20.4042 63.2117C20.4042 66.9083 18.5559 79.4767 23.3615 82.8036C25.2097 81.8179 28.9803 79.4026 27.7974 79.1069C26.6145 78.8112 26.0723 64.4438 25.9491 57.2971C32.7261 59.2686 47.611 63.4334 52.9341 64.3206C59.588 65.4296 59.2183 53.2308 58.479 55.8185C57.7397 58.4061 54.7824 58.0364 51.0858 58.0364C47.3893 58.0364 30.7546 52.1219 31.8636 51.7522C32.7508 51.4565 38.1478 42.7572 40.7354 38.4445C41.5556 37.0453 42.5044 33.9419 43.0533 30.2928C44.7355 19.1114 36.2646 15.5237 25.5794 19.2224C17.8905 21.8839 8.57509 34.8713 4.87849 41.0323C0.442593 49.9041 2.53732 53.8471 4.13918 54.7096Z" fill="#90E0EF" fill-opacity="0.6"/>
<path d="M89.6074 20.4549C90.4258 22.2013 93.6027 24.4613 99.7628 19.5296C95.0133 20.1731 91.9724 18.4315 104.577 13.4395C111.538 10.6824 118.573 9.98886 124.246 10.1317C132.087 10.3292 136.41 17.4452 129.966 21.9163C123.852 26.1582 114.763 29.0886 109.407 29.9804L119.394 17.3472C120.063 16.4997 120.63 15.5153 120.617 14.435C120.593 12.3722 119.179 11.8634 117.725 11.9558C116.412 12.0393 115.334 12.9313 114.516 13.9622C106.843 23.6277 99.5546 34.0996 97.095 37.2112C94.8026 40.1112 85.5587 48.825 87.2656 54.415C89.3269 54.7878 93.7826 55.2313 93.038 54.2657C92.2934 53.3002 100.778 41.6927 105.113 36.0096C109.207 41.7589 118.301 54.2567 121.927 58.2537C126.46 63.2499 133.734 53.4507 131.55 55.0222C129.365 56.5937 127.274 54.4699 124.374 52.1775C121.474 49.8852 112.092 34.9297 113.191 35.3274C114.071 35.6455 123.699 32.1677 128.404 30.389C129.915 29.8 132.584 27.9537 135.277 25.4314C143.531 17.7027 139.11 9.63512 128.434 5.91064C120.751 3.23057 105.39 7.64248 98.669 10.1834C89.6874 14.3926 88.8856 18.7849 89.6074 20.4549Z" fill="#90E0EF" fill-opacity="0.6"/>
<path d="M76.2227 13.3079C73.5611 12.4207 72.8958 13.6775 72.8958 14.4169L68.0901 15.5257C64.2456 16.4128 59.588 20.5777 57.7397 22.5492C52.5235 29.4689 52.7109 32.1905 58.4789 36.2266C56.8771 36.7195 53.7473 39.4057 54.043 46.2074C54.3387 53.0091 62.2987 52.4916 66.2417 51.3826C70.0616 49.4111 78.0709 44.2852 79.5495 39.5535C81.028 34.8219 80.1655 32.6532 79.5495 32.1604H77.7013C75.8532 34.3783 66.2417 49.1647 61.8058 46.2074C58.2571 43.8416 60.3272 40.7857 61.8058 39.5535L72.1563 32.1604C76.5922 27.133 73.0188 26.6155 70.6777 26.9851C67.7204 29.0799 61.4364 32.8257 59.9577 31.0514C58.4791 29.277 64.2704 23.9047 67.3509 21.4403C68.7063 22.1796 73.6351 25.1368 77.7013 18.8527C78.3174 17.3741 78.8842 14.1951 76.2227 13.3079Z" fill="#90E0EF" fill-opacity="0.6"/>
<path d="M74.7442 2.21802L68.8297 5.54494C70.678 9.61119 59.9578 58.7758 60.6971 60.6241C61.4364 62.4724 66.6117 60.6241 65.1331 60.6241C63.9502 60.6241 69.8154 29.5728 72.8959 14.0471L74.7442 2.21802Z" fill="#90E0EF" fill-opacity="0.6"/>
<path d="M163.831 18.8523C164.652 20.0829 163.092 23.9426 158.656 27.3547C153.85 31.0511 151.633 32.5301 148.305 31.0511C147.197 26.9853 150.154 25.1367 153.85 21.8097C157.536 18.4917 161.613 15.5256 163.831 18.8523Z" fill="#90E0EF" fill-opacity="0.6"/>
<path d="M146.562 46.6337C150.409 44.4548 161.261 45.5314 161.614 46.9466C161.614 47.6859 160.505 47.3163 159.766 48.4253C158.299 50.6261 163.956 50.6432 166.79 50.2735C169.008 49.9039 169.377 47.8092 169.377 46.2073C169.008 45.0983 168.712 44.3589 163.093 41.4016C157.474 38.4443 147.444 40.9087 143.131 42.5106C141.899 43.2499 139.435 45.32 139.435 47.6858C139.435 50.643 142.022 52.861 146.089 55.0789C147.654 55.9326 148.654 56.8774 149.271 57.7243C150.198 58.9968 149.519 60.4245 147.946 60.3475C145.834 60.2441 142.527 59.6151 139.435 58.7755C136.581 58.0005 137.463 55.5718 138.326 53.97C133.297 53.0953 131.865 55.4003 131.759 57.6572C131.69 59.1258 132.64 60.4058 133.834 61.2633C140.635 66.146 146.461 66.3796 150.549 65.1211C154.366 63.9458 157.301 59.8174 155.361 56.3266C153.191 52.4243 147.857 49.3244 146.387 47.4285C146.181 47.1629 146.269 46.7994 146.562 46.6337Z" fill="#90E0EF"/>
<path d="M1.92189 52.4916C3.64696 53.3541 7.5407 53.157 9.31506 45.4681C5.98814 48.9182 2.5225 49.4376 9.31506 37.7051C13.0667 31.2251 18.1556 26.3184 22.6948 22.9125C28.9682 18.2053 36.7721 21.1072 34.4896 28.6107C32.324 35.7296 27.0107 43.665 23.3621 47.6859V31.5824C23.3621 30.5021 23.1961 29.3785 22.5162 28.539C21.2178 26.9359 19.7932 27.4134 18.7101 28.3873C17.7316 29.2673 17.4388 30.6358 17.4361 31.9518C17.4111 44.2923 18.1869 57.0273 18.1869 60.9937C18.1869 64.6903 16.3386 77.2587 21.1442 80.5856C22.9925 79.5998 26.763 77.1846 25.5801 76.8889C24.3972 76.5931 23.855 62.2258 23.7318 55.079C30.5089 57.0506 45.3938 61.2154 50.7169 62.1025C57.3707 63.2115 57.001 51.0128 56.2617 53.6004C55.5224 56.188 52.5652 55.8184 48.8686 55.8184C45.172 55.8184 28.5373 49.9038 29.6463 49.5342C30.5335 49.2384 35.9305 40.5391 38.5181 36.2265C39.3384 34.8272 40.2871 31.7238 40.836 28.0748C42.5182 16.8934 34.0473 13.3057 23.3621 17.0044C15.6732 19.6659 6.35781 32.6533 2.66121 38.8142C-1.77469 47.686 0.320036 51.629 1.92189 52.4916Z" fill="#90E0EF"/>
<path d="M87.3901 18.2369C88.2085 19.9833 91.3855 22.2433 97.5455 17.3116C92.7961 17.9551 89.7551 16.2135 102.36 11.2215C109.321 8.46439 116.356 7.77084 122.029 7.91372C129.87 8.11119 134.192 15.2271 127.749 19.6983C121.635 23.9402 112.546 26.8706 107.19 27.7624L117.176 15.1292C117.846 14.2817 118.413 13.2973 118.4 12.217C118.375 10.1542 116.962 9.64536 115.508 9.73779C114.195 9.82131 113.116 10.7133 112.298 11.7441C104.626 21.4097 97.3373 31.8815 94.8777 34.9932C92.5854 37.8931 83.3414 46.6069 85.0483 52.1969C87.1096 52.5698 91.5653 53.0132 90.8207 52.0477C90.0761 51.0821 98.5603 39.4746 102.896 33.7916C106.99 39.5409 116.084 52.0387 119.71 56.0356C124.242 61.0318 131.517 51.2327 129.332 52.8042C127.148 54.3757 125.057 52.2518 122.157 49.9595C119.257 47.6671 109.875 32.7117 110.974 33.1094C111.853 33.4275 121.482 29.9497 126.186 28.171C127.698 27.582 130.366 25.7356 133.06 23.2134C141.313 15.4847 136.893 7.4171 126.216 3.69262C118.534 1.01255 103.172 5.42446 96.4517 7.96542C87.4701 12.1746 86.6683 16.5669 87.3901 18.2369Z" fill="#90E0EF"/>
<path d="M74.0054 11.0899C71.3439 10.2027 70.6785 11.4595 70.6785 12.1988L65.8729 13.3077C62.0283 14.1948 57.3707 18.3597 55.5224 20.3312C50.3063 27.2509 50.4936 29.9725 56.2616 34.0086C54.6598 34.5014 51.53 37.1876 51.8257 43.9893C52.1215 50.7911 60.0815 50.2735 64.0245 49.1646C67.8443 47.1931 75.8537 42.0671 77.3322 37.3355C78.8107 32.6039 77.9482 30.4352 77.3322 29.9423H75.4841C73.6359 32.1603 64.0245 46.9466 59.5886 43.9893C56.0399 41.6235 58.1099 38.5677 59.5886 37.3355L69.939 29.9423C74.3749 24.915 70.8015 24.3975 68.4604 24.7671C65.5032 26.8618 59.2191 30.6077 57.7405 28.8334C56.2618 27.059 62.0531 21.6866 65.1336 19.2222C66.489 19.9616 71.4178 22.9188 75.4841 16.6346C76.1002 15.156 76.667 11.977 74.0054 11.0899Z" fill="#90E0EF"/>
<path d="M72.5269 0L66.6124 3.32693C68.4607 7.39317 57.7405 56.5577 58.4798 58.406C59.2192 60.2543 64.3944 58.406 62.9158 58.406C61.7329 58.406 67.5981 27.3547 70.6786 11.8291L72.5269 0Z" fill="#90E0EF"/>
<path d="M161.614 16.6343C162.434 17.8648 160.875 21.7245 156.439 25.1366C151.633 28.8331 149.416 30.3121 146.088 28.8331C144.98 24.7672 147.937 22.9187 151.633 19.5917C155.319 16.2736 159.396 13.3076 161.614 16.6343Z" fill="#90E0EF"/>
</svg>
