<svg width="92" height="48" viewBox="0 0 92 48" fill="none" xmlns="http://www.w3.org/2000/svg">
<path fill-rule="evenodd" clip-rule="evenodd" d="M26.9306 33.6511C23.1669 33.6511 20.105 36.7525 20.105 40.5654C20.105 44.3777 23.1669 47.4796 26.9306 47.4796C30.6943 47.4796 33.7558 44.3777 33.7558 40.5654C33.7558 36.7525 30.6943 33.6511 26.9306 33.6511Z" fill="#FCB716"/>
<path fill-rule="evenodd" clip-rule="evenodd" d="M7.85693 33.6511C4.09321 33.6511 1.03174 36.7525 1.03174 40.5654C1.03174 44.3777 4.09321 47.4796 7.85693 47.4796C11.6202 47.4796 14.6826 44.3777 14.6826 40.5654C14.6826 36.7525 11.6202 33.6511 7.85693 33.6511Z" fill="#EE363F"/>
<path fill-rule="evenodd" clip-rule="evenodd" d="M46.0053 33.6511C42.2412 33.6511 39.1797 36.7525 39.1797 40.5654C39.1797 44.3777 42.2412 47.4796 46.0053 47.4796C49.7686 47.4796 52.8305 44.3777 52.8305 40.5654C52.8305 36.7525 49.7686 33.6511 46.0053 33.6511Z" fill="#07AF56"/>
<path fill-rule="evenodd" clip-rule="evenodd" d="M84.1504 33.6511C80.3867 33.6511 77.3252 36.7525 77.3252 40.5654C77.3252 44.3777 80.3867 47.4796 84.1504 47.4796C87.9141 47.4796 90.9756 44.3777 90.9756 40.5654C90.9756 36.7525 87.9141 33.6511 84.1504 33.6511Z" fill="#04A9DF"/>
<path fill-rule="evenodd" clip-rule="evenodd" d="M65.079 33.6512C61.3153 33.6512 58.2529 36.7527 58.2529 40.565C58.2529 44.3779 61.3148 47.4788 65.0786 47.4788C68.8423 47.4788 71.9037 44.3779 71.9037 40.565C71.9037 36.7527 68.8427 33.6512 65.079 33.6512Z" fill="#A1479A"/>
<path fill-rule="evenodd" clip-rule="evenodd" d="M0 14.059C0 9.5755 3.55239 6.19085 7.94748 6.19085C12.3723 6.19085 15.8945 9.54536 15.8945 14.0284V20.9205C15.8945 21.6217 15.4132 22.1097 14.6904 22.1097C13.9378 22.1097 13.4863 21.6217 13.4863 20.9205V18.9077H13.366C12.4327 20.5237 10.5662 21.9266 7.79653 21.9266C3.5222 21.9266 0 18.5721 0 14.059ZM13.5467 14.059C13.5467 10.8264 11.138 8.38671 7.94748 8.38671C4.75606 8.38671 2.34784 10.8264 2.34784 14.059C2.34784 17.2911 4.75606 19.7312 7.94748 19.7312C11.138 19.7312 13.5467 17.2911 13.5467 14.059ZM22.097 27.0199C21.4648 26.7149 21.1633 26.1657 21.4044 25.5257C21.6455 24.8542 22.2476 24.5802 22.8794 24.8852C23.9636 25.4033 25.3178 25.7695 26.7625 25.7695C30.3456 25.7695 32.5127 23.6042 32.5127 19.9141V18.9075H32.3919C31.4587 20.5241 29.593 21.9265 26.8229 21.9265C22.5481 21.9265 19.026 18.572 19.026 14.0588C19.026 9.57581 22.5783 6.19072 26.9739 6.19072C31.3991 6.19072 34.9213 9.54567 34.9213 14.0282V19.7617C34.9213 24.7021 31.7899 28.026 26.6724 28.026C25.1073 28.026 23.5418 27.7211 22.097 27.0199ZM32.5726 14.0588C32.5726 10.8262 30.1644 8.38613 26.9739 8.38613C23.7829 8.38613 21.3747 10.8262 21.3747 14.0588C21.3747 17.2914 23.7829 19.7311 26.9739 19.7311C30.1644 19.7311 32.5726 17.2914 32.5726 14.0588ZM38.0523 14.059C38.0523 9.5755 41.5749 6.19085 46.0002 6.19085C50.4251 6.19085 53.9473 9.5755 53.9473 14.059C53.9473 18.5415 50.4251 21.9266 46.0002 21.9266C41.5749 21.9266 38.0523 18.5415 38.0523 14.059ZM51.5994 14.059C51.5994 10.8264 49.1908 8.38671 46.0002 8.38671C42.8088 8.38671 40.4006 10.8264 40.4006 14.059C40.4006 17.2911 42.8088 19.7312 46.0002 19.7312C49.1908 19.7312 51.5994 17.2911 51.5994 14.059ZM57.0789 14.059C57.0789 9.5755 60.5705 6.19085 64.8754 6.19085C67.6451 6.19085 69.5116 7.59374 70.4449 9.20982H70.5652V1.18924C70.5652 0.488017 71.0469 0 71.7693 0C72.5223 0 72.9734 0.488017 72.9734 1.18924V14.0891C72.9734 18.5721 69.4512 21.9266 65.0264 21.9266C60.6313 21.9266 57.0789 18.5415 57.0789 14.059ZM70.6256 14.059C70.6256 10.8264 68.2169 8.38671 65.0264 8.38671C61.835 8.38671 59.4267 10.8264 59.4267 14.059C59.4267 17.2911 61.835 19.7312 65.0264 19.7312C68.2169 19.7312 70.6256 17.2911 70.6256 14.059ZM76.105 14.059C76.105 9.5755 79.6574 6.19085 84.0525 6.19085C88.4778 6.19085 92 9.54536 92 14.0284V20.9205C92 21.6217 91.5183 22.1097 90.7959 22.1097C90.0429 22.1097 89.5913 21.6217 89.5913 20.9205V18.9077H89.471C88.5377 20.5237 86.6716 21.9266 83.902 21.9266C79.6272 21.9266 76.105 18.5721 76.105 14.059ZM89.6517 14.059C89.6517 10.8264 87.2435 8.38671 84.0525 8.38671C80.8615 8.38671 78.4533 10.8264 78.4533 14.059C78.4533 17.2911 80.8615 19.7312 84.0525 19.7312C87.2435 19.7312 89.6517 17.2911 89.6517 14.059Z" fill="#5A5B5B"/>
</svg>
