<svg width="161" height="29" viewBox="0 0 161 29" fill="none" xmlns="http://www.w3.org/2000/svg">
<path d="M141.63 8.6906L145.617 0.4574L145.781 0.2287L145.945 0.11435L146.218 0H146.437L146.71 0.11435L146.874 0.2287L147.037 0.4574L151.024 8.6906L159.872 10.0628L160.036 10.1771L160.2 10.3487L160.309 10.6345L160.364 10.8632V11.0348V11.2063L160.309 11.435L153.865 17.9529L155.394 27.0438V27.2153L155.285 27.5012L154.957 27.9014L154.52 28.0729H154.247L154.028 28.0157L146.327 23.7848L138.517 28.0157L138.244 28.0729L137.917 28.0157L137.589 27.787L137.37 27.5583L137.316 27.3296L137.261 27.0438L138.845 17.9529L132.346 11.435L132.291 11.2635V11.0348L132.346 10.6917L132.455 10.463L132.619 10.2343L132.728 10.12L132.837 10.0628L141.63 8.6906Z" fill="#F7C825"/>
<path d="M108.558 8.6906L112.545 0.4574L112.709 0.2287L112.872 0.11435L113.145 0H113.364L113.637 0.11435L113.801 0.2287L113.965 0.4574L117.952 8.6906L126.8 10.0628L126.963 10.1771L127.127 10.3487L127.237 10.6345L127.291 10.8632V11.0348V11.2063L127.237 11.435L120.792 17.9529L122.321 27.0438V27.2153L122.212 27.5012L121.884 27.9014L121.447 28.0729H121.174L120.956 28.0157L113.255 23.7848L105.445 28.0157L105.171 28.0729L104.844 28.0157L104.516 27.787L104.298 27.5583L104.243 27.3296L104.188 27.0438L105.772 17.9529L99.2729 11.435L99.2183 11.2635V11.0348L99.2729 10.6917L99.3821 10.463L99.546 10.2343L99.6552 10.12L99.7644 10.0628L108.558 8.6906Z" fill="#F7C825"/>
<path d="M9.33943 8.6906L13.3264 0.4574L13.4903 0.2287L13.6541 0.11435L13.9272 0H14.1457L14.4188 0.11435L14.5826 0.2287L14.7465 0.4574L18.7335 8.6906L27.5814 10.0628L27.7452 10.1771L27.9091 10.3487L28.0183 10.6345L28.0729 10.8632V11.0348V11.2063L28.0183 11.435L21.5735 17.9529L23.1028 27.0438V27.2153L22.9936 27.5012L22.6659 27.9014L22.2289 28.0729H21.9559L21.7374 28.0157L14.0365 23.7848L6.22629 28.0157L5.95321 28.0729L5.62551 28.0157L5.29781 27.787L5.07934 27.5583L5.02472 27.3296L4.97011 27.0438L6.55399 17.9529L0.0546166 11.435L0 11.2635V11.0348L0.0546166 10.6917L0.16385 10.463L0.327699 10.2343L0.436933 10.12L0.546166 10.0628L9.33943 8.6906Z" fill="#F7C825"/>
<path d="M42.4122 8.6906L46.3992 0.4574L46.563 0.2287L46.7269 0.11435L47 0H47.2184L47.4915 0.11435L47.6554 0.2287L47.8192 0.4574L51.8062 8.6906L60.6541 10.0628L60.818 10.1771L60.9818 10.3487L61.0911 10.6345L61.1457 10.8632V11.0348V11.2063L61.0911 11.435L54.6463 17.9529L56.1756 27.0438V27.2153L56.0663 27.5012L55.7386 27.9014L55.3017 28.0729H55.0286L54.8101 28.0157L47.1092 23.7848L39.299 28.0157L39.026 28.0729L38.6983 28.0157L38.3706 27.787L38.1521 27.5583L38.0975 27.3296L38.0429 27.0438L39.6267 17.9529L33.1274 11.435L33.0728 11.2635V11.0348L33.1274 10.6917L33.2366 10.463L33.4005 10.2343L33.5097 10.12L33.6189 10.0628L42.4122 8.6906Z" fill="#F7C825"/>
<path d="M75.4849 8.6906L79.472 0.4574L79.6358 0.2287L79.7996 0.11435L80.0727 0H80.2912L80.5643 0.11435L80.7281 0.2287L80.892 0.4574L84.879 8.6906L93.7269 10.0628L93.8907 10.1771L94.0546 10.3487L94.1638 10.6345L94.2184 10.8632V11.0348V11.2063L94.1638 11.435L87.7191 17.9529L89.2483 27.0438V27.2153L89.1391 27.5012L88.8114 27.9014L88.3745 28.0729H88.1014L87.8829 28.0157L80.182 23.7848L72.3718 28.0157L72.0987 28.0729L71.771 28.0157L71.4433 27.787L71.2248 27.5583L71.1702 27.3296L71.1156 27.0438L72.6995 17.9529L66.2001 11.435L66.1455 11.2635V11.0348L66.2001 10.6917L66.3094 10.463L66.4732 10.2343L66.5824 10.12L66.6917 10.0628L75.4849 8.6906Z" fill="#F7C825"/>
</svg>
