<svg width="115" height="36" viewBox="0 0 115 36" fill="none" xmlns="http://www.w3.org/2000/svg">
<path d="M60.6087 9.00638C60.6087 10.2982 59.5664 11.3384 58.273 11.3384C56.9795 11.3384 55.938 10.2982 55.938 9.00638C55.938 7.71459 56.944 6.67441 58.273 6.67441C59.603 6.71025 60.6087 7.75079 60.6087 9.00638ZM50.9801 13.7069V14.2811C50.9801 14.2811 49.8669 12.8452 47.4956 12.8452C43.58 12.8452 40.5258 15.8234 40.5258 19.9494C40.5258 24.0398 43.5441 27.0535 47.4956 27.0535C49.9027 27.0535 50.9801 25.5825 50.9801 25.5825V26.1922C50.9801 26.4793 51.1962 26.694 51.4833 26.694H54.3929V13.2029H51.4833C51.1962 13.204 50.9801 13.4556 50.9801 13.7069ZM50.9801 22.3534C50.4418 23.143 49.3637 23.8248 48.0706 23.8248C45.7715 23.8248 44.0107 22.3896 44.0107 19.9494C44.0107 17.5095 45.7715 16.0743 48.0706 16.0743C49.3281 16.0743 50.4777 16.7919 50.9801 17.5454V22.3534ZM56.5488 13.204H59.9975V26.6951H56.5488V13.204ZM108.067 12.8449C105.696 12.8449 104.582 14.2807 104.582 14.2807V6.71025H101.133V26.6951H104.043C104.331 26.6951 104.546 26.4439 104.546 26.1926V25.5829C104.546 25.5829 105.66 27.0539 108.03 27.0539C111.947 27.0539 115 24.0409 115 19.9505C115 15.86 111.947 12.8449 108.067 12.8449ZM107.492 23.7886C106.162 23.7886 105.121 23.1075 104.582 22.3176V17.5095C105.121 16.7919 106.27 16.0385 107.492 16.0385C109.791 16.0385 111.551 17.4737 111.551 19.9135C111.551 22.3534 109.791 23.7886 107.492 23.7886ZM99.337 18.6942V26.731H95.8876V19.0884C95.8876 16.8643 95.1691 15.9668 93.2303 15.9668C92.1888 15.9668 91.1107 16.5052 90.427 17.2948V26.6955H86.979V13.2044H89.7085C89.996 13.2044 90.2116 13.4556 90.2116 13.7069V14.2811C91.2176 13.2402 92.5466 12.8452 93.8756 12.8452C95.3848 12.8452 96.6424 13.2764 97.6484 14.1374C98.8693 15.1421 99.337 16.4335 99.337 18.6942ZM78.607 12.8449C76.2365 12.8449 75.1225 14.2807 75.1225 14.2807V6.71025H71.6739V26.6951H74.5834C74.8709 26.6951 75.0866 26.4439 75.0866 26.1926V25.5829C75.0866 25.5829 76.2006 27.0539 78.5711 27.0539C82.4874 27.0539 85.541 24.0409 85.541 19.9505C85.5769 15.8596 82.5233 12.8449 78.607 12.8449ZM78.0321 23.7886C76.7031 23.7886 75.6616 23.1075 75.1225 22.3176V17.5095C75.6616 16.7919 76.8111 16.0385 78.0321 16.0385C80.3319 16.0385 82.0919 17.4737 82.0919 19.9135C82.0919 22.3534 80.3319 23.7886 78.0321 23.7886ZM68.6918 12.8449C69.7333 12.8449 70.2723 13.0248 70.2723 13.0248V16.2177C70.2723 16.2177 67.3983 15.2489 65.6024 17.2945V26.7306H62.153V13.204H65.0633C65.3508 13.204 65.5658 13.4553 65.5658 13.7065V14.2807C66.2132 13.527 67.6143 12.8449 68.6918 12.8449ZM32.8741 25.475C32.6946 25.0445 32.5148 24.5782 32.3354 24.1832C32.0476 23.5377 31.7601 22.9273 31.5092 22.3534L31.4733 22.3176C28.9941 16.9353 26.3361 11.4821 23.5334 6.10056L23.4258 5.88477C23.131 5.3265 22.8437 4.76431 22.564 4.19835C22.2044 3.55209 21.8455 2.87106 21.2706 2.2248C20.121 0.789631 18.4683 0 16.7083 0C14.9116 0 13.2951 0.789635 12.1101 2.15276C11.571 2.7983 11.1755 3.48005 10.8166 4.1263C10.5362 4.69192 10.249 5.2541 9.95488 5.81273L9.84686 6.02851C7.08047 11.41 4.38622 16.8636 1.90731 22.2455L1.87107 22.3168C1.61984 22.8918 1.332 23.5015 1.04452 24.1466C0.865075 24.5416 0.685626 24.9721 0.506177 25.4384C0.0388917 26.7657 -0.105033 28.0217 0.0751335 29.3138C0.47028 32.005 2.26621 34.2645 4.74547 35.2699C5.67968 35.6649 6.64979 35.8442 7.65542 35.8442C7.94289 35.8442 8.3018 35.8083 8.58964 35.7721C9.77544 35.6287 10.9968 35.2344 12.1826 34.5527C13.6555 33.7272 15.0566 32.5437 16.6372 30.8214C18.2178 32.5437 19.6548 33.7272 21.0918 34.5527C22.278 35.2344 23.499 35.6287 24.6844 35.7721C24.9719 35.8087 25.3315 35.8442 25.619 35.8442C26.625 35.8442 27.6306 35.6649 28.5286 35.2699C31.0437 34.2645 32.8038 31.9691 33.1993 29.3138C33.4846 28.0582 33.341 26.803 32.8741 25.475ZM16.672 27.3407C14.7318 24.9008 13.4742 22.6047 13.0436 20.6677C12.8641 19.8422 12.8279 19.1246 12.9359 18.4787C13.0073 17.9045 13.2234 17.402 13.5108 16.9715C14.1935 16.0034 15.343 15.393 16.6724 15.393C18.0021 15.393 19.1875 15.9672 19.8343 16.9715C20.1217 17.402 20.3371 17.9049 20.4096 18.4787C20.5169 19.125 20.481 19.8781 20.3016 20.6677C19.8691 22.5688 18.6115 24.8653 16.672 27.3407ZM31.0057 29.0271C30.7544 30.8927 29.4969 32.5078 27.7368 33.2254C26.8748 33.5839 25.9402 33.6917 25.0067 33.5839C24.1087 33.476 23.2101 33.1889 22.2766 32.6512C20.9831 31.9329 19.69 30.8214 18.1808 29.1705C20.5517 26.2646 21.9887 23.609 22.5278 21.2415C22.7794 20.129 22.8156 19.1246 22.7072 18.1913C22.564 17.2945 22.2403 16.469 21.7375 15.7514C20.6231 14.1363 18.7547 13.204 16.6717 13.204C14.5886 13.204 12.7202 14.1729 11.6065 15.7514C11.1037 16.469 10.78 17.2945 10.6364 18.1913C10.4929 19.1246 10.5284 20.1648 10.8159 21.2415C11.3546 23.609 12.8275 26.3001 15.1625 29.2063C13.6896 30.8569 12.3602 31.9695 11.0667 32.6871C10.1325 33.2254 9.23493 33.5125 8.33697 33.6197C7.36723 33.7276 6.43266 33.5839 5.60647 33.2613C3.84644 32.5437 2.58886 30.9286 2.33763 29.0629C2.22996 28.1661 2.30138 27.2693 2.661 26.2646C2.76831 25.9055 2.94847 25.5471 3.12792 25.1166C3.37951 24.5424 3.66627 23.9319 3.95411 23.3222L3.99036 23.2509C6.46891 17.9045 9.12727 12.4509 11.8937 7.14109L12.0013 6.92531C12.2892 6.38766 12.5766 5.81345 12.8638 5.27508C13.1512 4.70087 13.4742 4.1625 13.8697 3.69582C14.6241 2.83557 15.6298 2.36853 16.7438 2.36853C17.8578 2.36853 18.8635 2.83557 19.6179 3.69582C20.0134 4.16357 20.3364 4.70194 20.6238 5.27508C20.9117 5.81345 21.1992 6.38766 21.4859 6.92531L21.5939 7.14109C24.3181 12.473 26.9412 17.8559 29.4617 23.2868V23.3226C29.7495 23.8975 30.0008 24.5427 30.2882 25.1176C30.4677 25.5474 30.6475 25.9059 30.7552 26.265C31.0419 27.1969 31.1496 28.0944 31.0057 29.0271Z" fill="#FF5A5F"/>
</svg>
