<svg width="227" height="39" viewBox="0 0 227 39" fill="none" xmlns="http://www.w3.org/2000/svg">
<mask id="mask0_1933_112" style="mask-type:luminance" maskUnits="userSpaceOnUse" x="0" y="-1" width="227" height="40">
<path d="M0 -0.000131332H227V38.5178H0V-0.000131332Z" fill="white"/>
</mask>
<g mask="url(#mask0_1933_112)">
<mask id="mask1_1933_112" style="mask-type:luminance" maskUnits="userSpaceOnUse" x="0" y="-1" width="227" height="40">
<path d="M0 38.5178H227V-0.000131332H0V38.5178Z" fill="white"/>
</mask>
<g mask="url(#mask1_1933_112)">
<path d="M89.019 4.215C89.019 3.30015 89.3825 2.42277 90.0294 1.77588C90.6763 1.12898 91.5537 0.765558 92.4686 0.765558C93.3834 0.765558 94.2607 1.12898 94.9076 1.77588C95.5545 2.42277 95.9179 3.30015 95.9179 4.215C95.8846 5.10757 95.5066 5.95248 94.8634 6.57217C94.2201 7.19186 93.3618 7.53809 92.4686 7.53809C91.5754 7.53809 90.7169 7.19186 90.0736 6.57217C89.4304 5.95248 89.0524 5.10757 89.019 4.215Z" fill="#273B7D"/>
<path d="M143.442 27.221C143.442 25.3065 144.984 23.7595 146.884 23.7595C147.801 23.7595 148.681 24.124 149.33 24.7726C149.979 25.4213 150.343 26.3012 150.343 27.2186C150.343 28.136 149.979 29.0158 149.33 29.6645C148.681 30.3132 147.801 30.6776 146.884 30.6776C144.986 30.6776 143.442 29.1282 143.442 27.2186" fill="#499FDD"/>
<path d="M32.414 25.725C29.4449 25.725 27.3791 23.3661 27.3791 19.9935C27.3791 16.6234 29.4449 14.2669 32.4163 14.2669C35.4021 14.2669 37.4896 16.6234 37.4896 19.9935C37.4896 23.419 35.4478 25.725 32.414 25.725ZM32.414 9.22965C26.13 9.22965 21.5684 13.7576 21.5684 19.9935C21.5684 26.2319 26.1324 30.7574 32.414 30.7574C38.7243 30.7574 43.3027 26.2319 43.3027 19.9959C43.3027 13.7576 38.7219 9.22965 32.414 9.22965ZM82.3442 20.534C82.1256 20.111 81.8491 19.7205 81.5228 19.3738L81.3306 19.1744L81.5324 18.9823C81.8207 18.6772 82.1161 18.3169 82.3995 17.8989L87.9484 9.65483H81.213L77.0452 16.1045C76.8098 16.4504 76.3343 16.6234 75.6208 16.6234H74.672V4.43022C74.672 1.99207 73.1515 1.66057 71.5108 1.66057H68.7002L68.7074 30.4404H74.6743V21.8072H75.2341C75.9139 21.8072 76.375 21.8864 76.5888 22.2563L79.8797 28.4682C80.7997 30.1545 81.7149 30.4404 83.4396 30.4404H88.0109L84.6047 24.8098L82.3467 20.534M111.309 9.18161C108.273 9.18161 106.337 10.5316 105.251 11.6726L104.891 12.0377L104.761 11.5405C104.444 10.3178 103.368 9.64762 101.751 9.64762H99.0774L99.0943 30.4332H105.02V20.8535C105.02 19.9167 105.14 19.1048 105.39 18.3625C106.048 16.1165 107.888 14.7209 110.187 14.7209C112.037 14.7209 112.76 15.6986 112.76 18.2208V27.2744C112.76 29.4267 113.757 30.4332 115.911 30.4332H118.732L118.722 17.2119C118.722 11.9609 116.159 9.18161 111.309 9.18161ZM92.5461 9.65483H89.738L89.7572 25.7274V30.4404H92.7526L92.8583 30.4452L94.2565 30.4404H95.6449V30.4332H95.6544L95.6664 12.8136C95.6664 10.6877 94.6504 9.65723 92.5485 9.65723M55.688 25.725C52.719 25.725 50.6508 23.3661 50.6508 19.9935C50.6508 16.6234 52.7191 14.2669 55.6905 14.2669C58.6691 14.2669 60.7637 16.6234 60.7637 19.9935C60.7637 23.419 58.7219 25.725 55.6905 25.725H55.688ZM55.688 9.22965C49.3992 9.22965 44.8352 13.7576 44.8352 19.9935C44.8352 26.2319 49.3993 30.7574 55.6905 30.7574C61.9912 30.7574 66.5792 26.2319 66.5792 19.9959C66.5792 13.7576 61.9912 9.22965 55.6905 9.22965" fill="#273B7D"/>
</g>
</g>
<mask id="mask2_1933_112" style="mask-type:luminance" maskUnits="userSpaceOnUse" x="0" y="-1" width="227" height="40">
<path d="M0 -0.000131332H227V38.5178H0V-0.000131332Z" fill="white"/>
</mask>
<g mask="url(#mask2_1933_112)">
<mask id="mask3_1933_112" style="mask-type:luminance" maskUnits="userSpaceOnUse" x="0" y="0" width="227" height="39">
<path d="M0 0.759707H226.952V38.4681H0V0.759707Z" fill="white"/>
</mask>
<g mask="url(#mask3_1933_112)">
<mask id="mask4_1933_112" style="mask-type:luminance" maskUnits="userSpaceOnUse" x="0" y="-1" width="227" height="40">
<path d="M0 38.5172H227V-0.000741684H0V38.5172Z" fill="white"/>
</mask>
<g mask="url(#mask4_1933_112)">
<path d="M182.695 25.725C179.726 25.725 177.655 23.3661 177.655 19.9936C177.655 16.6234 179.726 14.2669 182.695 14.2669C185.678 14.2669 187.77 16.6234 187.77 19.9936C187.77 23.419 185.728 25.725 182.695 25.725ZM182.695 9.22967C176.406 9.22967 171.844 13.7577 171.844 19.9936C171.844 26.2319 176.406 30.7574 182.695 30.7574C188.998 30.7574 193.583 26.2319 193.583 19.996C193.583 13.7577 188.995 9.22967 182.695 9.22967Z" fill="#499FDD"/>
<path d="M131.214 24.8098C127.974 24.8098 126.821 21.9849 126.821 19.3353C126.821 18.1679 127.116 14.3653 130.904 14.3653C132.785 14.3653 135.29 14.9034 135.29 19.5299C135.29 23.8946 133.073 24.8098 131.214 24.8098ZM138.368 9.59955C137.243 9.59955 136.379 10.0487 135.944 10.8679L135.781 11.1849L135.507 10.9447C134.551 10.1184 132.835 9.13594 130.051 9.13594C124.51 9.13594 120.779 13.2988 120.779 19.4891C120.779 25.6769 124.64 30.0007 130.162 30.0007C132.048 30.0007 133.539 29.5587 134.721 28.6652L135.177 28.3217V28.8982C135.177 31.675 133.383 33.2076 130.128 33.2076C128.545 33.2076 127.106 32.8232 126.141 32.4725C124.887 32.093 124.147 32.4077 123.64 33.6688L123.169 34.8314L122.504 36.5321L122.915 36.7507C125 37.8557 127.712 38.5162 130.162 38.5162C135.206 38.5162 141.101 35.934 141.101 28.6652L141.123 9.59955H138.368Z" fill="#273B7D"/>
</g>
</g>
</g>
<mask id="mask5_1933_112" style="mask-type:luminance" maskUnits="userSpaceOnUse" x="0" y="-1" width="227" height="40">
<path d="M0 -0.000131332H227V38.5178H0V-0.000131332Z" fill="white"/>
</mask>
<g mask="url(#mask5_1933_112)">
<mask id="mask6_1933_112" style="mask-type:luminance" maskUnits="userSpaceOnUse" x="0" y="-1" width="227" height="40">
<path d="M0 38.5178H227V-0.000130281H0V38.5178Z" fill="white"/>
</mask>
<g mask="url(#mask6_1933_112)">
<path d="M10.3411 25.4862L5.51766 25.4814V19.7163C5.51766 18.4816 5.99568 17.8426 7.05021 17.6937H10.3411C12.688 17.6937 14.2061 19.1734 14.2085 21.5683C14.2061 24.0281 12.7264 25.4838 10.3411 25.4838V25.4862ZM5.51766 9.93008V8.41194C5.51766 7.08357 6.07977 6.45181 7.31206 6.37014H9.78147C11.8977 6.37014 13.166 7.63606 13.166 9.75713C13.166 11.3713 12.2964 13.257 9.8583 13.257H5.51766V9.93008ZM16.5002 15.6856L15.6281 15.1955L16.3896 14.5445C17.276 13.7831 18.7582 12.0704 18.7582 9.11576C18.7582 4.59017 15.2511 1.6692 9.81988 1.6692H2.91614C2.13933 1.69752 1.40323 2.02363 0.860328 2.57996C0.317422 3.13628 0.00935472 3.88016 0 4.65743V30.3361H9.94231C15.9788 30.3361 19.8751 27.05 19.8751 21.9599C19.8751 19.2191 18.6164 16.877 16.5002 15.6856Z" fill="#273B7D"/>
<path d="M220.053 9.24994C218.83 9.25445 217.623 9.53373 216.522 10.0672C215.421 10.6006 214.454 11.3746 213.692 12.3319L213.265 12.8747L212.928 12.267C211.828 10.266 209.94 9.24994 207.315 9.24994C204.559 9.24994 202.712 10.7873 201.854 11.7001L201.292 12.3078L201.076 11.5079C200.764 10.3549 199.738 9.72316 198.187 9.72316H195.695L195.671 30.4294H201.328V21.2894C201.328 20.487 201.429 19.6968 201.629 18.868C202.169 16.6581 203.654 14.2824 206.149 14.5202C207.687 14.6691 208.441 15.8582 208.441 18.1546V30.4294H214.139V21.2894C214.139 20.2877 214.233 19.5382 214.458 18.7888C214.915 16.6797 216.467 14.5178 218.874 14.5178C220.617 14.5178 221.261 15.5027 221.261 18.1546V27.4027C221.261 29.4926 222.193 30.4294 224.285 30.4294H226.947L226.952 17.2106C226.952 11.9283 224.627 9.24994 220.053 9.24994ZM168.566 23.2399C168.549 23.2615 166.116 25.827 162.909 25.827C159.988 25.827 157.038 24.035 157.038 20.0354C157.038 16.5812 159.325 14.1671 162.601 14.1671C163.663 14.1671 164.874 14.5466 165.064 15.188L165.09 15.2961C165.211 15.7376 165.474 16.1269 165.839 16.4036C166.204 16.6802 166.65 16.8288 167.108 16.8262L170.207 16.831V14.1214C170.207 10.5471 165.659 9.24994 162.601 9.24994C156.058 9.24994 151.312 13.8044 151.312 20.0787C151.312 26.3482 156.005 30.8978 162.481 30.8978C168.098 30.8978 171.153 27.2058 171.182 27.1697L171.345 26.968L168.89 22.8964L168.566 23.2399Z" fill="#499FDD"/>
</g>
</g>
</svg>
