<svg width="353" height="168" viewBox="0 0 353 168" fill="none" xmlns="http://www.w3.org/2000/svg">
<path d="M258.24 63.0768C263.443 60.1295 278.121 61.5857 278.6 63.5C278.6 64.5 277.1 64 276.1 65.5C274.115 68.4769 281.766 68.5 285.6 68C288.6 67.5 289.1 64.6667 289.1 62.5C288.6 61 288.2 59.9998 280.6 55.9998C273 51.9998 259.433 55.3331 253.6 57.4998C251.933 58.4998 248.6 61.2998 248.6 64.4998C248.6 68.4998 252.1 71.4998 257.6 74.4998C259.717 75.6544 261.07 76.9324 261.904 78.0778C263.157 79.7991 262.239 81.7302 260.112 81.626C257.255 81.4862 252.782 80.6354 248.6 79.4998C244.739 78.4515 245.933 75.1665 247.1 72.9998C240.297 71.8168 238.361 74.9344 238.217 77.9872C238.124 79.9736 239.409 81.7049 241.024 82.8647C250.222 89.4691 258.103 89.7851 263.633 88.0828C268.796 86.4932 272.766 80.909 270.141 76.1874C267.206 70.909 259.991 66.7162 258.003 64.1518C257.724 63.7925 257.844 63.3009 258.24 63.0768Z" fill="#0077B6"/>
<path d="M62.5996 71.0001C64.9329 72.1668 70.1996 71.9001 72.5996 61.5001C68.0996 66.1667 63.4119 66.8693 72.5996 50.9999C77.674 42.2351 84.5573 35.5983 90.697 30.9914C99.1824 24.6244 109.738 28.5495 106.651 38.6989C103.721 48.3279 96.5346 59.0613 91.5996 64.4999V42.7184C91.5996 41.2572 91.3751 39.7374 90.4554 38.6019C88.6992 36.4335 86.7723 37.0793 85.3073 38.3967C83.9837 39.587 83.5877 41.438 83.5841 43.2181C83.5503 59.9097 84.5996 77.1352 84.5996 82.5001C84.5996 87.5001 82.0996 104.5 88.5996 109C91.0996 107.667 96.1996 104.4 94.5996 104C92.9996 103.6 92.2663 84.1666 92.0996 74.4999C101.266 77.1666 121.4 82.7999 128.6 83.9999C137.6 85.4999 137.1 68.9999 136.1 72.4999C135.1 75.9999 131.1 75.4999 126.1 75.4999C121.1 75.4999 98.5996 67.4999 100.1 66.9999C101.3 66.5999 108.6 54.8332 112.1 48.9999C113.209 47.1073 114.492 42.9096 115.235 37.974C117.51 22.85 106.052 17.9972 91.5996 23.0001C81.1996 26.6001 68.5996 44.1668 63.5996 52.5001C57.5996 64.5001 60.4329 69.8335 62.5996 71.0001Z" fill="#0077B6"/>
<path d="M178.204 24.6672C179.311 27.0294 183.608 30.0862 191.94 23.4157C185.516 24.2861 181.403 21.9303 198.451 15.1782C207.868 11.4489 217.383 10.5108 225.057 10.7041C235.662 10.9712 241.509 20.5962 232.793 26.6439C224.524 32.3815 212.23 36.3451 204.985 37.5514L218.493 20.4637C219.399 19.3174 220.165 17.9859 220.148 16.5247C220.115 13.7346 218.203 13.0463 216.236 13.1713C214.46 13.2843 213.001 14.4908 211.895 15.8851C201.517 28.9588 191.658 43.1229 188.332 47.3317C185.231 51.2543 172.728 63.0405 175.036 70.6016C177.824 71.1059 183.851 71.7057 182.844 70.3997C181.837 69.0937 193.313 53.3934 199.176 45.7065C204.714 53.483 217.015 70.3875 221.92 75.7938C228.05 82.5517 237.89 69.2973 234.935 71.4229C231.98 73.5486 229.152 70.6758 225.229 67.5752C221.307 64.4746 208.617 44.2458 210.103 44.7837C211.293 45.2141 224.317 40.51 230.68 38.1041C232.724 37.3074 236.333 34.81 239.977 31.3984C251.14 20.9446 245.161 10.0324 230.72 4.99464C220.329 1.36957 199.551 7.33713 190.461 10.774C178.312 16.4673 177.228 22.4084 178.204 24.6672Z" fill="#0077B6"/>
<path d="M160.1 15.0001C156.5 13.8001 155.6 15.5001 155.6 16.5001L149.1 18C143.9 19.1999 137.6 24.8333 135.1 27.5C128.044 36.8596 128.298 40.5408 136.099 46C133.933 46.6667 129.699 50.3 130.099 59.5C130.499 68.7 141.266 68 146.599 66.5C151.766 63.8333 162.6 56.9 164.599 50.5C166.599 44.1 165.433 41.1667 164.599 40.5H162.1C159.6 43.5 146.599 63.5 140.599 59.5C135.799 56.3 138.599 52.1667 140.599 50.5L154.599 40.5C160.599 33.7 155.766 33 152.599 33.5C148.6 36.3333 140.1 41.4 138.1 39C136.1 36.6 143.933 29.3333 148.1 26C149.933 27 156.6 31 162.1 22.5C162.933 20.5 163.7 16.2001 160.1 15.0001Z" fill="#0077B6"/>
<path d="M158.1 0L150.1 4.5C152.6 10 138.1 76.5 139.1 79C140.1 81.5 147.1 79 145.1 79C143.5 79 151.433 37 155.6 16L158.1 0Z" fill="#0077B6"/>
<path d="M278.599 22.4995C279.709 24.164 277.599 29.3846 271.599 33.9998C265.099 38.9996 262.099 41.0002 257.599 38.9996C256.099 33.5002 260.1 30.9998 265.099 26.4997C270.085 22.0117 275.599 17.9998 278.599 22.4995Z" fill="#0077B6"/>
<path d="M261.24 66.0768C266.443 63.1295 281.121 64.5857 281.6 66.5C281.6 67.5 280.1 67 279.1 68.5C277.115 71.4769 284.766 71.5 288.6 71C291.6 70.5 292.1 67.6667 292.1 65.5C291.6 64 291.2 62.9998 283.6 58.9998C276 54.9998 262.433 58.3331 256.6 60.4998C254.933 61.4998 251.6 64.2998 251.6 67.4998C251.6 71.4998 255.1 74.4998 260.6 77.4998C262.717 78.6544 264.07 79.9324 264.904 81.0778C266.157 82.7991 265.239 84.7302 263.112 84.626C260.255 84.4862 255.782 83.6354 251.6 82.4998C247.739 81.4515 248.933 78.1665 250.1 75.9998C243.297 74.8168 241.361 77.9344 241.217 80.9872C241.124 82.9736 242.409 84.7049 244.024 85.8647C253.222 92.4691 261.103 92.7851 266.633 91.0828C271.796 89.4932 275.766 83.909 273.141 79.1874C270.206 73.909 262.991 69.7162 261.003 67.1518C260.724 66.7925 260.844 66.3009 261.24 66.0768Z" fill="#0077B6" fill-opacity="0.6"/>
<path d="M65.5996 74.0001C67.9329 75.1668 73.1996 74.9001 75.5996 64.5001C71.0996 69.1667 66.4119 69.8693 75.5996 53.9999C80.674 45.2351 87.5573 38.5983 93.697 33.9914C102.182 27.6244 112.738 31.5495 109.651 41.6989C106.721 51.3279 99.5346 62.0613 94.5996 67.4999V45.7184C94.5996 44.2572 94.3751 42.7374 93.4554 41.6019C91.6992 39.4335 89.7723 40.0793 88.3073 41.3967C86.9837 42.587 86.5877 44.438 86.5841 46.2181C86.5503 62.9097 87.5996 80.1352 87.5996 85.5001C87.5996 90.5001 85.0996 107.5 91.5996 112C94.0996 110.667 99.1996 107.4 97.5996 107C95.9996 106.6 95.2663 87.1666 95.0996 77.4999C104.266 80.1666 124.4 85.7999 131.6 86.9999C140.6 88.4999 140.1 71.9999 139.1 75.4999C138.1 78.9999 134.1 78.4999 129.1 78.4999C124.1 78.4999 101.6 70.4999 103.1 69.9999C104.3 69.5999 111.6 57.8332 115.1 51.9999C116.209 50.1073 117.492 45.9096 118.235 40.974C120.51 25.85 109.052 20.9972 94.5996 26.0001C84.1996 29.6001 71.5996 47.1668 66.5996 55.5001C60.5996 67.5001 63.4329 72.8335 65.5996 74.0001Z" fill="#0077B6" fill-opacity="0.6"/>
<path d="M181.204 27.6672C182.311 30.0294 186.608 33.0862 194.94 26.4157C188.516 27.2861 184.403 24.9303 201.451 18.1782C210.868 14.4489 220.383 13.5108 228.057 13.7041C238.662 13.9712 244.509 23.5962 235.793 29.6439C227.524 35.3815 215.23 39.3451 207.985 40.5514L221.493 23.4637C222.399 22.3174 223.165 20.9859 223.148 19.5247C223.115 16.7346 221.203 16.0463 219.236 16.1713C217.46 16.2843 216.001 17.4908 214.895 18.8851C204.517 31.9588 194.658 46.1229 191.332 50.3317C188.231 54.2543 175.728 66.0405 178.036 73.6016C180.824 74.1059 186.851 74.7057 185.844 73.3997C184.837 72.0937 196.313 56.3934 202.176 48.7065C207.714 56.483 220.015 73.3875 224.92 78.7938C231.05 85.5517 240.89 72.2973 237.935 74.4229C234.98 76.5486 232.152 73.6758 228.229 70.5752C224.307 67.4746 211.617 47.2458 213.103 47.7837C214.293 48.2141 227.317 43.51 233.68 41.1041C235.724 40.3074 239.333 37.81 242.977 34.3984C254.14 23.9446 248.161 13.0324 233.72 7.99464C223.329 4.36957 202.551 10.3371 193.461 13.774C181.312 19.4673 180.228 25.4084 181.204 27.6672Z" fill="#0077B6" fill-opacity="0.6"/>
<path d="M163.1 18.0001C159.5 16.8001 158.6 18.5001 158.6 19.5001L152.1 21C146.9 22.1999 140.6 27.8333 138.1 30.5C131.044 39.8596 131.298 43.5408 139.099 49C136.933 49.6667 132.699 53.3 133.099 62.5C133.499 71.7 144.266 71 149.599 69.5C154.766 66.8333 165.6 59.9 167.599 53.5C169.599 47.1 168.433 44.1667 167.599 43.5H165.1C162.6 46.5 149.599 66.5 143.599 62.5C138.799 59.3 141.599 55.1667 143.599 53.5L157.599 43.5C163.599 36.7 158.766 36 155.599 36.5C151.6 39.3333 143.1 44.4 141.1 42C139.1 39.6 146.933 32.3333 151.1 29C152.933 30 159.6 34 165.1 25.5C165.933 23.5 166.7 19.2001 163.1 18.0001Z" fill="#0077B6" fill-opacity="0.6"/>
<path d="M161.1 3L153.1 7.5C155.6 13 141.1 79.5 142.1 82C143.1 84.5 150.1 82 148.1 82C146.5 82 154.433 40 158.6 19L161.1 3Z" fill="#0077B6" fill-opacity="0.6"/>
<path d="M281.599 25.4995C282.709 27.164 280.599 32.3846 274.599 36.9998C268.099 41.9996 265.099 44.0002 260.599 41.9996C259.099 36.5002 263.1 33.9998 268.099 29.4997C273.085 25.0117 278.599 20.9998 281.599 25.4995Z" fill="#0077B6" fill-opacity="0.6"/>
<path d="M265.24 70.0768C270.443 67.1295 285.121 68.5857 285.6 70.5C285.6 71.5 284.1 71 283.1 72.5C281.115 75.4769 288.766 75.5 292.6 75C295.6 74.5 296.1 71.6667 296.1 69.5C295.6 68 295.2 66.9998 287.6 62.9998C280 58.9998 266.433 62.3331 260.6 64.4998C258.933 65.4998 255.6 68.2998 255.6 71.4998C255.6 75.4998 259.1 78.4998 264.6 81.4998C266.717 82.6544 268.07 83.9324 268.904 85.0778C270.157 86.7991 269.239 88.7302 267.112 88.626C264.255 88.4862 259.782 87.6354 255.6 86.4998C251.739 85.4515 252.933 82.1665 254.1 79.9998C247.297 78.8168 245.361 81.9344 245.217 84.9872C245.124 86.9736 246.409 88.7049 248.024 89.8647C257.222 96.4691 265.103 96.7851 270.633 95.0828C275.796 93.4932 279.766 87.909 277.141 83.1874C274.206 77.909 266.991 73.7162 265.003 71.1518C264.724 70.7925 264.844 70.3009 265.24 70.0768Z" fill="#0077B6" fill-opacity="0.2"/>
<path d="M69.5995 78.0001C71.9329 79.1668 77.1995 78.9001 79.5995 68.5001C75.0996 73.1667 70.4119 73.8693 79.5995 57.9999C84.674 49.2351 91.5573 42.5983 97.697 37.9914C106.182 31.6244 116.738 35.5495 113.651 45.6989C110.721 55.3279 103.535 66.0613 98.5996 71.4999V49.7184C98.5996 48.2572 98.3751 46.7374 97.4554 45.6019C95.6992 43.4335 93.7723 44.0793 92.3073 45.3967C90.9837 46.587 90.5877 48.438 90.5841 50.2181C90.5503 66.9097 91.5996 84.1352 91.5996 89.5001C91.5996 94.5001 89.0996 111.5 95.5996 116C98.0996 114.667 103.2 111.4 101.6 111C99.9996 110.6 99.2663 91.1666 99.0996 81.4999C108.266 84.1666 128.4 89.7999 135.6 90.9999C144.6 92.4999 144.1 75.9999 143.1 79.4999C142.1 82.9999 138.1 82.4999 133.1 82.4999C128.1 82.4999 105.6 74.4999 107.1 73.9999C108.3 73.5999 115.6 61.8332 119.1 55.9999C120.209 54.1073 121.492 49.9096 122.235 44.974C124.51 29.85 113.052 24.9972 98.5996 30.0001C88.1996 33.6001 75.5996 51.1668 70.5995 59.5001C64.5995 71.5001 67.4329 76.8335 69.5995 78.0001Z" fill="#0077B6" fill-opacity="0.2"/>
<path d="M185.204 31.6672C186.311 34.0294 190.608 37.0862 198.94 30.4157C192.516 31.2861 188.403 28.9303 205.451 22.1782C214.868 18.4489 224.383 17.5108 232.057 17.7041C242.662 17.9712 248.509 27.5962 239.793 33.6439C231.524 39.3815 219.23 43.3451 211.985 44.5514L225.493 27.4637C226.399 26.3174 227.165 24.9859 227.148 23.5247C227.115 20.7346 225.203 20.0463 223.236 20.1713C221.46 20.2843 220.001 21.4908 218.895 22.8851C208.517 35.9588 198.658 50.1229 195.332 54.3317C192.231 58.2543 179.728 70.0405 182.036 77.6016C184.824 78.1059 190.851 78.7057 189.844 77.3997C188.837 76.0937 200.313 60.3934 206.176 52.7065C211.714 60.483 224.015 77.3875 228.92 82.7938C235.05 89.5517 244.89 76.2973 241.935 78.4229C238.98 80.5486 236.152 77.6758 232.229 74.5752C228.307 71.4746 215.617 51.2458 217.103 51.7837C218.293 52.2141 231.317 47.51 237.68 45.1041C239.724 44.3074 243.333 41.81 246.977 38.3984C258.14 27.9446 252.161 17.0324 237.72 11.9946C227.329 8.36957 206.551 14.3371 197.461 17.774C185.312 23.4673 184.228 29.4084 185.204 31.6672Z" fill="#0077B6" fill-opacity="0.2"/>
<path d="M167.1 22.0001C163.5 20.8001 162.6 22.5001 162.6 23.5001L156.1 25C150.9 26.1999 144.6 31.8333 142.1 34.5C135.044 43.8596 135.298 47.5408 143.099 53C140.933 53.6667 136.699 57.3 137.099 66.5C137.499 75.7 148.266 75 153.599 73.5C158.766 70.8333 169.6 63.9 171.599 57.5C173.599 51.1 172.433 48.1667 171.599 47.5H169.1C166.6 50.5 153.599 70.5 147.599 66.5C142.799 63.3 145.599 59.1667 147.599 57.5L161.599 47.5C167.599 40.7 162.766 40 159.599 40.5C155.6 43.3333 147.1 48.4 145.1 46C143.1 43.6 150.933 36.3333 155.1 33C156.933 34 163.6 38 169.1 29.5C169.933 27.5 170.7 23.2001 167.1 22.0001Z" fill="#0077B6" fill-opacity="0.2"/>
<path d="M165.1 7L157.1 11.5C159.6 17 145.1 83.5 146.1 86C147.1 88.5 154.1 86 152.1 86C150.5 86 158.433 44 162.6 23L165.1 7Z" fill="#0077B6" fill-opacity="0.2"/>
<path d="M285.599 29.4995C286.709 31.164 284.599 36.3846 278.599 40.9998C272.099 45.9996 269.099 48.0002 264.599 45.9996C263.099 40.5002 267.1 37.9998 272.099 33.4997C277.085 29.0117 282.599 24.9998 285.599 29.4995Z" fill="#0077B6" fill-opacity="0.2"/>
<path d="M36.1133 135.26C34.692 135.26 33.3313 135.061 32.0313 134.662C30.7313 134.246 29.7 133.717 28.9373 133.076L30.1073 130.45C30.8353 131.022 31.7367 131.499 32.8113 131.88C33.886 132.261 34.9867 132.452 36.1133 132.452C37.0667 132.452 37.838 132.348 38.4273 132.14C39.0167 131.932 39.45 131.655 39.7273 131.308C40.0047 130.944 40.1433 130.537 40.1433 130.086C40.1433 129.531 39.944 129.089 39.5453 128.76C39.1467 128.413 38.6267 128.145 37.9853 127.954C37.3613 127.746 36.6593 127.555 35.8793 127.382C35.1167 127.209 34.3453 127.009 33.5653 126.784C32.8027 126.541 32.1007 126.238 31.4593 125.874C30.8353 125.493 30.324 124.99 29.9253 124.366C29.5267 123.742 29.3273 122.945 29.3273 121.974C29.3273 120.986 29.5873 120.085 30.1073 119.27C30.6447 118.438 31.4507 117.779 32.5253 117.294C33.6173 116.791 34.9953 116.54 36.6593 116.54C37.7513 116.54 38.8347 116.679 39.9093 116.956C40.984 117.233 41.92 117.632 42.7173 118.152L41.6513 120.778C40.8367 120.293 39.996 119.937 39.1293 119.712C38.2627 119.469 37.4307 119.348 36.6333 119.348C35.6973 119.348 34.9347 119.461 34.3453 119.686C33.7733 119.911 33.3487 120.206 33.0713 120.57C32.8113 120.934 32.6813 121.35 32.6813 121.818C32.6813 122.373 32.872 122.823 33.2533 123.17C33.652 123.499 34.1633 123.759 34.7873 123.95C35.4287 124.141 36.1393 124.331 36.9193 124.522C37.6993 124.695 38.4707 124.895 39.2333 125.12C40.0133 125.345 40.7153 125.64 41.3393 126.004C41.9807 126.368 42.492 126.862 42.8733 127.486C43.272 128.11 43.4713 128.899 43.4713 129.852C43.4713 130.823 43.2027 131.724 42.6653 132.556C42.1453 133.371 41.3393 134.029 40.2473 134.532C39.1553 135.017 37.7773 135.26 36.1133 135.26Z" fill="#00B4D8"/>
<path d="M49.9429 124.366H58.9909V127.148H49.9429V124.366ZM50.2029 132.166H60.4729V135H46.8229V116.8H60.1089V119.634H50.2029V132.166Z" fill="#00B4D8"/>
<path d="M61.6669 135L69.8569 116.8H73.1849L81.4009 135H77.8649L70.8189 118.594H72.1709L65.1509 135H61.6669ZM65.4369 130.788L66.3469 128.136H76.1749L77.0849 130.788H65.4369Z" fill="#00B4D8"/>
<path d="M89.3575 135.26C87.9361 135.26 86.5755 135.061 85.2755 134.662C83.9755 134.246 82.9441 133.717 82.1815 133.076L83.3515 130.45C84.0795 131.022 84.9808 131.499 86.0555 131.88C87.1301 132.261 88.2308 132.452 89.3575 132.452C90.3108 132.452 91.0821 132.348 91.6715 132.14C92.2608 131.932 92.6941 131.655 92.9715 131.308C93.2488 130.944 93.3875 130.537 93.3875 130.086C93.3875 129.531 93.1881 129.089 92.7895 128.76C92.3908 128.413 91.8708 128.145 91.2295 127.954C90.6055 127.746 89.9035 127.555 89.1235 127.382C88.3608 127.209 87.5895 127.009 86.8095 126.784C86.0468 126.541 85.3448 126.238 84.7035 125.874C84.0795 125.493 83.5681 124.99 83.1695 124.366C82.7708 123.742 82.5715 122.945 82.5715 121.974C82.5715 120.986 82.8315 120.085 83.3515 119.27C83.8888 118.438 84.6948 117.779 85.7695 117.294C86.8615 116.791 88.2395 116.54 89.9035 116.54C90.9955 116.54 92.0788 116.679 93.1535 116.956C94.2281 117.233 95.1641 117.632 95.9615 118.152L94.8955 120.778C94.0808 120.293 93.2401 119.937 92.3735 119.712C91.5068 119.469 90.6748 119.348 89.8775 119.348C88.9415 119.348 88.1788 119.461 87.5895 119.686C87.0175 119.911 86.5928 120.206 86.3155 120.57C86.0555 120.934 85.9255 121.35 85.9255 121.818C85.9255 122.373 86.1161 122.823 86.4975 123.17C86.8961 123.499 87.4075 123.759 88.0315 123.95C88.6728 124.141 89.3835 124.331 90.1635 124.522C90.9435 124.695 91.7148 124.895 92.4775 125.12C93.2575 125.345 93.9595 125.64 94.5835 126.004C95.2248 126.368 95.7362 126.862 96.1175 127.486C96.5162 128.11 96.7155 128.899 96.7155 129.852C96.7155 130.823 96.4468 131.724 95.9095 132.556C95.3895 133.371 94.5835 134.029 93.4915 134.532C92.3995 135.017 91.0215 135.26 89.3575 135.26Z" fill="#00B4D8"/>
<path d="M100.067 135V116.8H103.447V135H100.067Z" fill="#00B4D8"/>
<path d="M108.37 135V116.8H116.326C118.302 116.8 120.035 117.181 121.526 117.944C123.016 118.707 124.178 119.764 125.01 121.116C125.842 122.468 126.258 124.063 126.258 125.9C126.258 127.72 125.842 129.315 125.01 130.684C124.178 132.036 123.016 133.093 121.526 133.856C120.035 134.619 118.302 135 116.326 135H108.37ZM111.75 132.14H116.17C117.539 132.14 118.718 131.88 119.706 131.36C120.711 130.84 121.482 130.112 122.02 129.176C122.574 128.24 122.852 127.148 122.852 125.9C122.852 124.635 122.574 123.543 122.02 122.624C121.482 121.688 120.711 120.96 119.706 120.44C118.718 119.92 117.539 119.66 116.17 119.66H111.75V132.14Z" fill="#00B4D8"/>
<path d="M132.97 124.366H142.018V127.148H132.97V124.366ZM133.23 132.166H143.5V135H129.85V116.8H143.136V119.634H133.23V132.166Z" fill="#00B4D8"/>
<path d="M151.88 135L160.07 116.8H163.398L171.614 135H168.078L161.032 118.594H162.384L155.364 135H151.88ZM155.65 130.788L156.56 128.136H166.388L167.298 130.788H155.65Z" fill="#00B4D8"/>
<path d="M173.928 135V116.8H181.416C183.028 116.8 184.406 117.06 185.55 117.58C186.712 118.1 187.604 118.845 188.228 119.816C188.852 120.787 189.164 121.939 189.164 123.274C189.164 124.609 188.852 125.761 188.228 126.732C187.604 127.703 186.712 128.448 185.55 128.968C184.406 129.488 183.028 129.748 181.416 129.748H175.8L177.308 128.162V135H173.928ZM177.308 128.526L175.8 126.888H181.26C182.751 126.888 183.869 126.576 184.614 125.952C185.377 125.311 185.758 124.418 185.758 123.274C185.758 122.113 185.377 121.22 184.614 120.596C183.869 119.972 182.751 119.66 181.26 119.66H175.8L177.308 117.996V128.526Z" fill="#00B4D8"/>
<path d="M189.052 135L197.242 116.8H200.57L208.786 135H205.25L198.204 118.594H199.556L192.536 135H189.052ZM192.822 130.788L193.732 128.136H203.56L204.47 130.788H192.822Z" fill="#00B4D8"/>
<path d="M211.1 135V116.8H218.588C220.2 116.8 221.578 117.06 222.722 117.58C223.884 118.1 224.776 118.845 225.4 119.816C226.024 120.787 226.336 121.939 226.336 123.274C226.336 124.609 226.024 125.761 225.4 126.732C224.776 127.685 223.884 128.422 222.722 128.942C221.578 129.445 220.2 129.696 218.588 129.696H212.972L214.48 128.162V135H211.1ZM223.008 135L218.406 128.396H222.02L226.648 135H223.008ZM214.48 128.526L212.972 126.914H218.432C219.923 126.914 221.041 126.593 221.786 125.952C222.549 125.311 222.93 124.418 222.93 123.274C222.93 122.113 222.549 121.22 221.786 120.596C221.041 119.972 219.923 119.66 218.432 119.66H212.972L214.48 117.996V128.526Z" fill="#00B4D8"/>
<path d="M233.556 135V119.66H227.524V116.8H242.968V119.66H236.936V135H233.556Z" fill="#00B4D8"/>
<path d="M245.505 135V116.8H248.287L256.243 130.086H254.787L262.613 116.8H265.395L265.421 135H262.223L262.197 121.818H262.873L256.217 132.92H254.709L247.949 121.818H248.729V135H245.505Z" fill="#00B4D8"/>
<path d="M273.457 124.366H282.505V127.148H273.457V124.366ZM273.717 132.166H283.987V135H270.337V116.8H283.623V119.634H273.717V132.166Z" fill="#00B4D8"/>
<path d="M287.755 135V116.8H290.537L301.951 130.814H300.573V116.8H303.927V135H301.145L289.731 120.986H291.109V135H287.755Z" fill="#00B4D8"/>
<path d="M312.495 135V119.66H306.463V116.8H321.907V119.66H315.875V135H312.495Z" fill="#00B4D8"/>
<path d="M0.0528564 162V143.8H6.57886C8.10419 143.8 9.41286 144.043 10.5049 144.528C11.5969 145.013 12.4375 145.715 13.0269 146.634C13.6162 147.535 13.9109 148.636 13.9109 149.936C13.9109 151.201 13.6162 152.293 13.0269 153.212C12.4375 154.113 11.5969 154.815 10.5049 155.318C9.41286 155.803 8.10419 156.046 6.57886 156.046H0.780856L1.37886 155.422V162H0.0528564ZM12.6889 162L7.95686 155.396H9.46486L14.1969 162H12.6889ZM1.37886 155.5L0.780856 154.876H6.57886C8.53752 154.876 10.0195 154.443 11.0249 153.576C12.0475 152.709 12.5589 151.496 12.5589 149.936C12.5589 148.359 12.0475 147.145 11.0249 146.296C10.0195 145.429 8.53752 144.996 6.57886 144.996H0.780856L1.37886 144.346V155.5Z" fill="#90E0EF"/>
<path d="M23.8617 162.104C22.4924 162.104 21.2791 161.809 20.2217 161.22C19.1817 160.631 18.3584 159.816 17.7517 158.776C17.1624 157.736 16.8677 156.549 16.8677 155.214C16.8677 153.862 17.1451 152.675 17.6997 151.652C18.2717 150.612 19.0517 149.797 20.0397 149.208C21.0277 148.619 22.1371 148.324 23.3677 148.324C24.5984 148.324 25.6991 148.61 26.6697 149.182C27.6577 149.754 28.4291 150.56 28.9837 151.6C29.5557 152.623 29.8417 153.81 29.8417 155.162C29.8417 155.214 29.8331 155.275 29.8157 155.344C29.8157 155.396 29.8157 155.457 29.8157 155.526H17.8297V154.512H29.1137L28.5937 155.006C28.6111 153.949 28.3857 153.004 27.9177 152.172C27.4671 151.323 26.8517 150.664 26.0717 150.196C25.2917 149.711 24.3904 149.468 23.3677 149.468C22.3624 149.468 21.4611 149.711 20.6637 150.196C19.8837 150.664 19.2684 151.323 18.8177 152.172C18.3671 153.004 18.1417 153.957 18.1417 155.032V155.266C18.1417 156.375 18.3844 157.363 18.8697 158.23C19.3724 159.079 20.0571 159.747 20.9237 160.232C21.7904 160.7 22.7784 160.934 23.8877 160.934C24.7544 160.934 25.5604 160.778 26.3057 160.466C27.0684 160.154 27.7097 159.677 28.2297 159.036L28.9837 159.894C28.3944 160.622 27.6491 161.177 26.7477 161.558C25.8637 161.922 24.9017 162.104 23.8617 162.104Z" fill="#90E0EF"/>
<path d="M33.8634 162V142.708H35.1634V162H33.8634Z" fill="#90E0EF"/>
<path d="M49.1967 162V158.906L49.1447 158.438V153.342C49.1447 152.077 48.7981 151.115 48.1047 150.456C47.4287 149.797 46.432 149.468 45.1147 149.468C44.1787 149.468 43.3034 149.633 42.4887 149.962C41.6914 150.274 41.0067 150.681 40.4347 151.184L39.7847 150.248C40.4607 149.641 41.2754 149.173 42.2287 148.844C43.182 148.497 44.1787 148.324 45.2187 148.324C46.9 148.324 48.1914 148.749 49.0927 149.598C49.994 150.447 50.4447 151.713 50.4447 153.394V162H49.1967ZM44.3087 162.104C43.3034 162.104 42.428 161.948 41.6827 161.636C40.9547 161.307 40.3914 160.847 39.9927 160.258C39.6114 159.669 39.4207 158.993 39.4207 158.23C39.4207 157.537 39.5767 156.913 39.8887 156.358C40.2181 155.786 40.7554 155.327 41.5007 154.98C42.2461 154.616 43.2427 154.434 44.4907 154.434H49.4827V155.448H44.5167C43.1127 155.448 42.1247 155.708 41.5527 156.228C40.998 156.748 40.7207 157.398 40.7207 158.178C40.7207 159.045 41.0501 159.738 41.7087 160.258C42.3674 160.778 43.2947 161.038 44.4907 161.038C45.6347 161.038 46.5967 160.778 47.3767 160.258C48.1741 159.738 48.7634 158.984 49.1447 157.996L49.5087 158.88C49.1447 159.868 48.5207 160.657 47.6367 161.246C46.77 161.818 45.6607 162.104 44.3087 162.104Z" fill="#90E0EF"/>
<path d="M53.6429 162L59.2849 154.668L59.2589 155.292L53.9289 148.428H55.4109L60.0649 154.434H59.5189L64.1469 148.428H65.6029L60.2209 155.37L60.2469 154.668L65.9669 162H64.4329L59.5189 155.604L60.0129 155.656L55.1249 162H53.6429Z" fill="#90E0EF"/>
<path d="M69.2833 162V148.428H70.5833V162H69.2833ZM69.9333 145.126C69.6387 145.126 69.3873 145.022 69.1793 144.814C68.9713 144.606 68.8673 144.363 68.8673 144.086C68.8673 143.791 68.9713 143.54 69.1793 143.332C69.3873 143.124 69.6387 143.02 69.9333 143.02C70.2453 143.02 70.4967 143.124 70.6873 143.332C70.8953 143.523 70.9993 143.765 70.9993 144.06C70.9993 144.355 70.8953 144.606 70.6873 144.814C70.4967 145.022 70.2453 145.126 69.9333 145.126Z" fill="#90E0EF"/>
<path d="M82.6926 148.324C83.802 148.324 84.764 148.541 85.5786 148.974C86.4106 149.39 87.052 150.031 87.5026 150.898C87.9706 151.747 88.2046 152.805 88.2046 154.07V162H86.9046V154.174C86.9046 152.649 86.5146 151.487 85.7346 150.69C84.972 149.893 83.8973 149.494 82.5106 149.494C81.4533 149.494 80.5346 149.711 79.7546 150.144C78.9746 150.577 78.3766 151.184 77.9606 151.964C77.562 152.744 77.3626 153.68 77.3626 154.772V162H76.0626V148.428H77.3106V152.198L77.1286 151.782C77.5446 150.707 78.2293 149.867 79.1826 149.26C80.136 148.636 81.306 148.324 82.6926 148.324Z" fill="#90E0EF"/>
<path d="M99.1988 167.148C97.9681 167.148 96.7981 166.957 95.6888 166.576C94.5794 166.195 93.6781 165.666 92.9848 164.99L93.6868 164.002C94.3628 164.626 95.1688 165.111 96.1048 165.458C97.0581 165.805 98.0808 165.978 99.1728 165.978C100.993 165.978 102.327 165.553 103.177 164.704C104.043 163.855 104.477 162.52 104.477 160.7V156.93L104.737 154.902L104.529 152.874V148.428H105.777V160.544C105.777 162.815 105.222 164.479 104.113 165.536C103.021 166.611 101.383 167.148 99.1988 167.148ZM98.8348 161.506C97.5521 161.506 96.3994 161.229 95.3768 160.674C94.3714 160.102 93.5654 159.322 92.9588 158.334C92.3694 157.329 92.0748 156.185 92.0748 154.902C92.0748 153.602 92.3694 152.458 92.9588 151.47C93.5654 150.482 94.3714 149.711 95.3768 149.156C96.3994 148.601 97.5521 148.324 98.8348 148.324C100.065 148.324 101.166 148.593 102.137 149.13C103.125 149.65 103.905 150.404 104.477 151.392C105.049 152.363 105.335 153.533 105.335 154.902C105.335 156.254 105.049 157.424 104.477 158.412C103.905 159.4 103.125 160.163 102.137 160.7C101.166 161.237 100.065 161.506 98.8348 161.506ZM98.9388 160.336C100.031 160.336 100.993 160.111 101.825 159.66C102.657 159.192 103.307 158.551 103.775 157.736C104.26 156.904 104.503 155.959 104.503 154.902C104.503 153.827 104.26 152.883 103.775 152.068C103.307 151.253 102.657 150.621 101.825 150.17C100.993 149.719 100.031 149.494 98.9388 149.494C97.8814 149.494 96.9281 149.719 96.0788 150.17C95.2468 150.621 94.5881 151.253 94.1028 152.068C93.6348 152.883 93.4008 153.827 93.4008 154.902C93.4008 155.959 93.6348 156.904 94.1028 157.736C94.5881 158.551 95.2468 159.192 96.0788 159.66C96.9281 160.111 97.8814 160.336 98.9388 160.336Z" fill="#90E0EF"/>
<path d="M110.031 165.718L111.045 161.324L111.175 162.078C110.846 162.078 110.569 161.974 110.343 161.766C110.135 161.558 110.031 161.298 110.031 160.986C110.031 160.674 110.135 160.414 110.343 160.206C110.569 159.998 110.829 159.894 111.123 159.894C111.453 159.894 111.713 160.007 111.903 160.232C112.111 160.44 112.215 160.691 112.215 160.986C112.215 161.107 112.207 161.229 112.189 161.35C112.172 161.471 112.146 161.593 112.111 161.714C112.077 161.835 112.033 161.991 111.981 162.182L110.967 165.718H110.031Z" fill="#90E0EF"/>
<path d="M131.274 162.13C129.922 162.13 128.666 161.905 127.504 161.454C126.36 160.986 125.364 160.336 124.514 159.504C123.665 158.672 123.006 157.701 122.538 156.592C122.07 155.465 121.836 154.235 121.836 152.9C121.836 151.565 122.07 150.343 122.538 149.234C123.006 148.107 123.665 147.128 124.514 146.296C125.381 145.464 126.386 144.823 127.53 144.372C128.674 143.904 129.922 143.67 131.274 143.67C132.557 143.67 133.753 143.878 134.862 144.294C135.989 144.71 136.951 145.343 137.748 146.192L136.916 147.05C136.136 146.287 135.27 145.741 134.316 145.412C133.38 145.065 132.384 144.892 131.326 144.892C130.165 144.892 129.082 145.091 128.076 145.49C127.088 145.889 126.222 146.452 125.476 147.18C124.748 147.908 124.176 148.757 123.76 149.728C123.362 150.699 123.162 151.756 123.162 152.9C123.162 154.044 123.362 155.101 123.76 156.072C124.176 157.043 124.748 157.892 125.476 158.62C126.222 159.348 127.088 159.911 128.076 160.31C129.082 160.709 130.165 160.908 131.326 160.908C132.384 160.908 133.38 160.743 134.316 160.414C135.27 160.067 136.136 159.504 136.916 158.724L137.748 159.582C136.951 160.431 135.989 161.073 134.862 161.506C133.753 161.922 132.557 162.13 131.274 162.13Z" fill="#90E0EF"/>
<path d="M146.443 162.104C145.143 162.104 143.981 161.809 142.959 161.22C141.953 160.631 141.147 159.816 140.541 158.776C139.951 157.736 139.657 156.549 139.657 155.214C139.657 153.862 139.951 152.675 140.541 151.652C141.147 150.612 141.953 149.797 142.959 149.208C143.981 148.619 145.143 148.324 146.443 148.324C147.743 148.324 148.904 148.619 149.927 149.208C150.949 149.797 151.755 150.612 152.345 151.652C152.934 152.675 153.229 153.862 153.229 155.214C153.229 156.549 152.934 157.736 152.345 158.776C151.755 159.816 150.949 160.631 149.927 161.22C148.904 161.809 147.743 162.104 146.443 162.104ZM146.443 160.934C147.483 160.934 148.419 160.7 149.251 160.232C150.083 159.747 150.733 159.071 151.201 158.204C151.669 157.337 151.903 156.341 151.903 155.214C151.903 154.07 151.669 153.073 151.201 152.224C150.733 151.357 150.083 150.69 149.251 150.222C148.419 149.737 147.483 149.494 146.443 149.494C145.403 149.494 144.467 149.737 143.635 150.222C142.82 150.69 142.17 151.357 141.685 152.224C141.217 153.073 140.983 154.07 140.983 155.214C140.983 156.341 141.217 157.337 141.685 158.204C142.17 159.071 142.82 159.747 143.635 160.232C144.467 160.7 145.403 160.934 146.443 160.934Z" fill="#90E0EF"/>
<path d="M155.421 162V161.116L164.703 149.104L165.041 149.546H155.551V148.428H166.055V149.312L156.747 161.324L156.357 160.882H166.211V162H155.421Z" fill="#90E0EF"/>
<path d="M169.544 167.148C168.92 167.148 168.33 167.044 167.776 166.836C167.238 166.628 166.779 166.325 166.398 165.926L167.048 164.938C167.394 165.302 167.767 165.571 168.166 165.744C168.582 165.917 169.05 166.004 169.57 166.004C170.194 166.004 170.74 165.831 171.208 165.484C171.693 165.137 172.144 164.505 172.56 163.586L173.496 161.506L173.678 161.272L179.424 148.428H180.75L173.782 163.846C173.418 164.678 173.019 165.328 172.586 165.796C172.17 166.281 171.71 166.628 171.208 166.836C170.705 167.044 170.15 167.148 169.544 167.148ZM173.47 162.338L167.178 148.428H168.556L174.276 161.194L173.47 162.338Z" fill="#90E0EF"/>
<path d="M181.455 165.718L182.469 161.324L182.599 162.078C182.27 162.078 181.993 161.974 181.767 161.766C181.559 161.558 181.455 161.298 181.455 160.986C181.455 160.674 181.559 160.414 181.767 160.206C181.993 159.998 182.253 159.894 182.547 159.894C182.877 159.894 183.137 160.007 183.327 160.232C183.535 160.44 183.639 160.691 183.639 160.986C183.639 161.107 183.631 161.229 183.613 161.35C183.596 161.471 183.57 161.593 183.535 161.714C183.501 161.835 183.457 161.991 183.405 162.182L182.391 165.718H181.455Z" fill="#90E0EF"/>
<path d="M202.698 162.13C201.346 162.13 200.089 161.905 198.928 161.454C197.784 160.986 196.787 160.336 195.938 159.504C195.089 158.672 194.43 157.701 193.962 156.592C193.494 155.465 193.26 154.235 193.26 152.9C193.26 151.565 193.494 150.343 193.962 149.234C194.43 148.107 195.089 147.128 195.938 146.296C196.805 145.464 197.81 144.823 198.954 144.372C200.098 143.904 201.346 143.67 202.698 143.67C203.981 143.67 205.177 143.878 206.286 144.294C207.413 144.71 208.375 145.343 209.172 146.192L208.34 147.05C207.56 146.287 206.693 145.741 205.74 145.412C204.804 145.065 203.807 144.892 202.75 144.892C201.589 144.892 200.505 145.091 199.5 145.49C198.512 145.889 197.645 146.452 196.9 147.18C196.172 147.908 195.6 148.757 195.184 149.728C194.785 150.699 194.586 151.756 194.586 152.9C194.586 154.044 194.785 155.101 195.184 156.072C195.6 157.043 196.172 157.892 196.9 158.62C197.645 159.348 198.512 159.911 199.5 160.31C200.505 160.709 201.589 160.908 202.75 160.908C203.807 160.908 204.804 160.743 205.74 160.414C206.693 160.067 207.56 159.504 208.34 158.724L209.172 159.582C208.375 160.431 207.413 161.073 206.286 161.506C205.177 161.922 203.981 162.13 202.698 162.13Z" fill="#90E0EF"/>
<path d="M217.867 162.104C216.567 162.104 215.405 161.809 214.383 161.22C213.377 160.631 212.571 159.816 211.965 158.776C211.375 157.736 211.081 156.549 211.081 155.214C211.081 153.862 211.375 152.675 211.965 151.652C212.571 150.612 213.377 149.797 214.383 149.208C215.405 148.619 216.567 148.324 217.867 148.324C219.167 148.324 220.328 148.619 221.351 149.208C222.373 149.797 223.179 150.612 223.769 151.652C224.358 152.675 224.653 153.862 224.653 155.214C224.653 156.549 224.358 157.736 223.769 158.776C223.179 159.816 222.373 160.631 221.351 161.22C220.328 161.809 219.167 162.104 217.867 162.104ZM217.867 160.934C218.907 160.934 219.843 160.7 220.675 160.232C221.507 159.747 222.157 159.071 222.625 158.204C223.093 157.337 223.327 156.341 223.327 155.214C223.327 154.07 223.093 153.073 222.625 152.224C222.157 151.357 221.507 150.69 220.675 150.222C219.843 149.737 218.907 149.494 217.867 149.494C216.827 149.494 215.891 149.737 215.059 150.222C214.244 150.69 213.594 151.357 213.109 152.224C212.641 153.073 212.407 154.07 212.407 155.214C212.407 156.341 212.641 157.337 213.109 158.204C213.594 159.071 214.244 159.747 215.059 160.232C215.891 160.7 216.827 160.934 217.867 160.934Z" fill="#90E0EF"/>
<path d="M245.586 148.324C246.678 148.324 247.622 148.541 248.42 148.974C249.234 149.39 249.867 150.031 250.318 150.898C250.768 151.747 250.994 152.805 250.994 154.07V162H249.694V154.174C249.694 152.649 249.321 151.487 248.576 150.69C247.83 149.893 246.79 149.494 245.456 149.494C244.433 149.494 243.549 149.711 242.804 150.144C242.058 150.577 241.486 151.184 241.088 151.964C240.689 152.744 240.49 153.68 240.49 154.772V162H239.19V154.174C239.19 152.649 238.817 151.487 238.072 150.69C237.326 149.893 236.286 149.494 234.952 149.494C233.929 149.494 233.045 149.711 232.3 150.144C231.554 150.577 230.982 151.184 230.584 151.964C230.185 152.744 229.986 153.68 229.986 154.772V162H228.686V148.428H229.934V152.172L229.752 151.756C230.15 150.699 230.818 149.867 231.754 149.26C232.69 148.636 233.816 148.324 235.134 148.324C236.486 148.324 237.621 148.671 238.54 149.364C239.476 150.04 240.065 151.054 240.308 152.406L239.866 152.224C240.23 151.063 240.914 150.127 241.92 149.416C242.925 148.688 244.147 148.324 245.586 148.324Z" fill="#90E0EF"/>
<path d="M256.621 162V146.348C256.621 145.221 256.942 144.32 257.583 143.644C258.242 142.951 259.178 142.604 260.391 142.604C260.894 142.604 261.388 142.682 261.873 142.838C262.359 142.977 262.757 143.193 263.069 143.488L262.549 144.476C262.289 144.216 261.977 144.025 261.613 143.904C261.249 143.783 260.859 143.722 260.443 143.722C259.611 143.722 258.979 143.956 258.545 144.424C258.112 144.875 257.895 145.551 257.895 146.452V148.74L257.921 149.364V162H256.621ZM254.125 149.546V148.428H262.237V149.546H254.125Z" fill="#90E0EF"/>
<path d="M269.968 162.104C268.668 162.104 267.507 161.809 266.484 161.22C265.479 160.631 264.673 159.816 264.066 158.776C263.477 157.736 263.182 156.549 263.182 155.214C263.182 153.862 263.477 152.675 264.066 151.652C264.673 150.612 265.479 149.797 266.484 149.208C267.507 148.619 268.668 148.324 269.968 148.324C271.268 148.324 272.43 148.619 273.452 149.208C274.475 149.797 275.281 150.612 275.87 151.652C276.46 152.675 276.754 153.862 276.754 155.214C276.754 156.549 276.46 157.736 275.87 158.776C275.281 159.816 274.475 160.631 273.452 161.22C272.43 161.809 271.268 162.104 269.968 162.104ZM269.968 160.934C271.008 160.934 271.944 160.7 272.776 160.232C273.608 159.747 274.258 159.071 274.726 158.204C275.194 157.337 275.428 156.341 275.428 155.214C275.428 154.07 275.194 153.073 274.726 152.224C274.258 151.357 273.608 150.69 272.776 150.222C271.944 149.737 271.008 149.494 269.968 149.494C268.928 149.494 267.992 149.737 267.16 150.222C266.346 150.69 265.696 151.357 265.21 152.224C264.742 153.073 264.508 154.07 264.508 155.214C264.508 156.341 264.742 157.337 265.21 158.204C265.696 159.071 266.346 159.747 267.16 160.232C267.992 160.7 268.928 160.934 269.968 160.934Z" fill="#90E0EF"/>
<path d="M280.787 162V148.428H282.035V152.146L281.905 151.73C282.287 150.638 282.928 149.797 283.829 149.208C284.731 148.619 285.857 148.324 287.209 148.324V149.598C287.157 149.598 287.105 149.598 287.053 149.598C287.001 149.581 286.949 149.572 286.897 149.572C285.389 149.572 284.211 150.049 283.361 151.002C282.512 151.938 282.087 153.247 282.087 154.928V162H280.787Z" fill="#90E0EF"/>
<path d="M295.353 162.104C294.157 162.104 293.238 161.775 292.597 161.116C291.973 160.457 291.661 159.556 291.661 158.412V145.464H292.961V158.282C292.961 159.149 293.177 159.816 293.611 160.284C294.044 160.752 294.668 160.986 295.483 160.986C296.332 160.986 297.034 160.735 297.589 160.232L298.135 161.142C297.788 161.471 297.363 161.714 296.861 161.87C296.375 162.026 295.873 162.104 295.353 162.104ZM289.165 149.546V148.428H297.277V149.546H289.165Z" fill="#90E0EF"/>
<path d="M310.314 162V158.906L310.262 158.438V153.342C310.262 152.077 309.915 151.115 309.222 150.456C308.546 149.797 307.549 149.468 306.232 149.468C305.296 149.468 304.421 149.633 303.606 149.962C302.809 150.274 302.124 150.681 301.552 151.184L300.902 150.248C301.578 149.641 302.393 149.173 303.346 148.844C304.299 148.497 305.296 148.324 306.336 148.324C308.017 148.324 309.309 148.749 310.21 149.598C311.111 150.447 311.562 151.713 311.562 153.394V162H310.314ZM305.426 162.104C304.421 162.104 303.545 161.948 302.8 161.636C302.072 161.307 301.509 160.847 301.11 160.258C300.729 159.669 300.538 158.993 300.538 158.23C300.538 157.537 300.694 156.913 301.006 156.358C301.335 155.786 301.873 155.327 302.618 154.98C303.363 154.616 304.36 154.434 305.608 154.434H310.6V155.448H305.634C304.23 155.448 303.242 155.708 302.67 156.228C302.115 156.748 301.838 157.398 301.838 158.178C301.838 159.045 302.167 159.738 302.826 160.258C303.485 160.778 304.412 161.038 305.608 161.038C306.752 161.038 307.714 160.778 308.494 160.258C309.291 159.738 309.881 158.984 310.262 157.996L310.626 158.88C310.262 159.868 309.638 160.657 308.754 161.246C307.887 161.818 306.778 162.104 305.426 162.104Z" fill="#90E0EF"/>
<path d="M323.73 162.104C322.534 162.104 321.451 161.827 320.48 161.272C319.527 160.717 318.764 159.92 318.192 158.88C317.637 157.84 317.36 156.618 317.36 155.214C317.36 153.775 317.637 152.545 318.192 151.522C318.764 150.499 319.527 149.711 320.48 149.156C321.451 148.601 322.534 148.324 323.73 148.324C325.013 148.324 326.157 148.619 327.162 149.208C328.185 149.78 328.982 150.586 329.554 151.626C330.143 152.649 330.438 153.845 330.438 155.214C330.438 156.566 330.143 157.762 329.554 158.802C328.982 159.842 328.185 160.657 327.162 161.246C326.157 161.818 325.013 162.104 323.73 162.104ZM316.918 162V142.708H318.218V152.822L317.958 155.188L318.166 157.554V162H316.918ZM323.652 160.934C324.692 160.934 325.628 160.7 326.46 160.232C327.292 159.747 327.942 159.071 328.41 158.204C328.895 157.337 329.138 156.341 329.138 155.214C329.138 154.07 328.895 153.073 328.41 152.224C327.942 151.357 327.292 150.69 326.46 150.222C325.628 149.737 324.692 149.494 323.652 149.494C322.612 149.494 321.676 149.737 320.844 150.222C320.029 150.69 319.379 151.357 318.894 152.224C318.426 153.073 318.192 154.07 318.192 155.214C318.192 156.341 318.426 157.337 318.894 158.204C319.379 159.071 320.029 159.747 320.844 160.232C321.676 160.7 322.612 160.934 323.652 160.934Z" fill="#90E0EF"/>
<path d="M334.463 162V142.708H335.763V162H334.463Z" fill="#90E0EF"/>
<path d="M346.754 162.104C345.385 162.104 344.172 161.809 343.114 161.22C342.074 160.631 341.251 159.816 340.644 158.776C340.055 157.736 339.76 156.549 339.76 155.214C339.76 153.862 340.038 152.675 340.592 151.652C341.164 150.612 341.944 149.797 342.932 149.208C343.92 148.619 345.03 148.324 346.26 148.324C347.491 148.324 348.592 148.61 349.562 149.182C350.55 149.754 351.322 150.56 351.876 151.6C352.448 152.623 352.734 153.81 352.734 155.162C352.734 155.214 352.726 155.275 352.708 155.344C352.708 155.396 352.708 155.457 352.708 155.526H340.722V154.512H352.006L351.486 155.006C351.504 153.949 351.278 153.004 350.81 152.172C350.36 151.323 349.744 150.664 348.964 150.196C348.184 149.711 347.283 149.468 346.26 149.468C345.255 149.468 344.354 149.711 343.556 150.196C342.776 150.664 342.161 151.323 341.71 152.172C341.26 153.004 341.034 153.957 341.034 155.032V155.266C341.034 156.375 341.277 157.363 341.762 158.23C342.265 159.079 342.95 159.747 343.816 160.232C344.683 160.7 345.671 160.934 346.78 160.934C347.647 160.934 348.453 160.778 349.198 160.466C349.961 160.154 350.602 159.677 351.122 159.036L351.876 159.894C351.287 160.622 350.542 161.177 349.64 161.558C348.756 161.922 347.794 162.104 346.754 162.104Z" fill="#90E0EF"/>
</svg>
